<svg width="194" height="100" viewBox="0 0 194 100" fill="none" xmlns="http://www.w3.org/2000/svg">
<g clip-path="url(#clip0_2601_115)">
<path d="M43.4527 58.4062H37.9085L31.952 72.0251H43.4527C45.2587 72.0251 46.9907 72.7425 48.2677 74.0195C49.5447 75.2965 50.2621 77.0285 50.2621 78.8345C50.2621 80.6405 49.5447 82.3725 48.2677 83.6495C46.9907 84.9265 45.2587 85.6439 43.4527 85.6439H25.9814L20.0249 99.2628H43.4527C54.6975 99.2628 63.8952 90.0651 63.8952 78.8203C63.8952 67.5755 54.6975 58.4062 43.4527 58.4062Z" fill="#F15B26"/>
<path d="M20.4425 85.6417H25.9867L31.9574 72.0228H20.4425C18.6365 72.0228 16.9045 71.3054 15.6275 70.0284C14.3505 68.7514 13.6331 67.0194 13.6331 65.2134C13.6331 63.4075 14.3505 61.6755 15.6275 60.3984C16.9045 59.1214 18.6365 58.404 20.4425 58.404H37.9138L43.8845 44.7852H20.4425C9.19769 44.771 0 53.9686 0 65.2134C0 76.4582 9.19769 85.6417 20.4425 85.6417Z" fill="#F15B26"/>
<path d="M79.4108 62.2852C77.0368 62.2852 74.7622 61.3327 72.5588 59.4136L69.2749 64.3607C72.0612 66.9765 75.4162 68.2985 79.4393 68.2985C82.4673 68.2985 84.8413 67.5877 86.6183 66.1804C88.4095 64.7303 89.2767 62.8965 89.2767 60.6646C89.2767 58.0062 88.1536 56.215 85.3673 54.8503C84.0026 54.1395 82.1687 53.4856 79.9653 52.8601C78.6005 52.4904 77.8897 51.9502 77.8897 51.1968C77.8897 50.486 78.7569 49.9174 79.9653 49.9174C81.7565 49.9174 83.5761 50.5855 85.481 51.8649L88.637 47.0458C86.1918 45.0555 83.3629 44.0604 80.079 44.0604C77.2074 44.0604 74.8902 44.7286 73.1843 46.0933C71.4784 47.4154 70.6112 49.1639 70.6112 51.3247C70.6112 54.1537 72.0186 56.2292 74.8902 57.5513C75.4304 57.8072 76.5108 58.1768 78.0461 58.717C79.6241 59.2572 80.4486 59.5131 80.5765 59.5415C81.4011 59.8685 81.8275 60.295 81.8275 60.8352C81.856 61.7876 81.0315 62.2852 79.4108 62.2852ZM121.717 46.8325C119.841 45.0413 117.609 44.1741 114.951 44.1741C111.709 44.1741 109.008 45.2972 106.89 47.586C104.772 49.8321 103.734 52.6895 103.734 56.1439C103.734 59.5984 104.772 62.4558 106.89 64.7872C109.008 67.1186 111.667 68.2701 114.951 68.2701C117.609 68.2701 119.855 67.4029 121.717 65.697V67.6872H128.612V44.757H121.717V46.8325ZM120.097 59.9964C119.608 60.4921 119.026 60.8866 118.384 61.1573C117.743 61.4281 117.054 61.5698 116.358 61.5744C115.661 61.5791 114.971 61.4465 114.326 61.1843C113.681 60.922 113.094 60.5353 112.598 60.0462V60.0391L112.555 59.9964C111.56 58.9587 111.063 57.665 111.063 56.1724C111.049 55.4811 111.175 54.7942 111.431 54.1521C111.687 53.51 112.07 52.9257 112.555 52.4336C113.55 51.3958 114.801 50.8556 116.337 50.8556C117.041 50.8485 117.739 50.9847 118.39 51.256C119.04 51.5273 119.628 51.9279 120.118 52.4336C120.617 52.918 121.011 53.4999 121.275 54.1432C121.539 54.7864 121.668 55.4771 121.653 56.1724C121.639 57.6793 121.142 58.9587 120.104 59.9964H120.097ZM147.789 54.8503C146.425 54.1395 144.591 53.4856 142.387 52.8601C141.023 52.4904 140.312 51.936 140.312 51.1968C140.312 50.486 141.179 49.9174 142.387 49.9174C144.179 49.9174 145.998 50.5855 147.903 51.8649L151.059 47.0458C148.614 45.0555 145.785 44.0604 142.501 44.0604C139.644 44.0604 137.326 44.7143 135.621 46.0933C133.915 47.4154 133.047 49.1639 133.047 51.3247C133.047 54.1537 134.455 56.2292 137.326 57.5513C137.867 57.8072 138.947 58.1768 140.482 58.717C142.06 59.2572 142.885 59.5131 143.013 59.5415C143.837 59.8685 144.264 60.295 144.264 60.8352C144.264 61.7876 143.439 62.2852 141.819 62.2852C139.445 62.2852 137.17 61.3327 134.967 59.4136L131.683 64.3607C134.469 66.9765 137.824 68.2985 141.847 68.2985C144.875 68.2985 147.249 67.5877 149.026 66.1804C150.817 64.7303 151.685 62.8965 151.685 60.6646C151.685 58.0062 150.561 56.215 147.789 54.8503ZM178.425 67.673V53.5993C178.425 50.5713 177.557 48.1972 175.852 46.5908C174.146 44.9845 172.027 44.1457 169.582 44.1457C166.412 44.1457 163.768 45.6952 162.56 47.6144V36H155.253V99.3461H162.56V87.3905C162.56 84.4478 164.379 82.486 167.038 82.486C169.525 82.486 171.061 84.2346 171.061 87.2199V99.3461H178.41V85.2723C178.41 82.2443 177.543 79.8703 175.837 78.2497C174.131 76.6291 172.013 75.7903 169.568 75.7903C166.398 75.7903 163.754 77.3398 162.545 79.259V55.7175C162.545 52.7748 164.365 50.813 167.023 50.813C169.511 50.813 171.047 52.5615 171.047 55.5469V67.673H178.425ZM121.717 78.5056C119.855 76.7143 117.609 75.8472 114.951 75.8472C111.709 75.8472 109.008 76.9702 106.89 79.259C104.772 81.5051 103.734 84.3625 103.734 87.817C103.734 91.2714 104.772 94.1288 106.89 96.446C109.008 98.7632 111.667 99.9289 114.951 99.9289C117.609 99.9289 119.855 99.0617 121.717 97.3558V99.3461H128.612V76.43H121.717V78.5056ZM120.097 91.6695C119.608 92.1651 119.026 92.5596 118.384 92.8304C117.743 93.1011 117.054 93.2428 116.358 93.2475C115.661 93.2521 114.971 93.1195 114.326 92.8573C113.681 92.5951 113.094 92.2084 112.598 91.7192V91.7121L112.555 91.6695C111.56 90.6317 111.063 89.3381 111.063 87.8454C111.049 87.1541 111.175 86.4672 111.431 85.8251C111.687 85.183 112.07 84.5987 112.555 84.1066C113.55 83.0689 114.801 82.5286 116.337 82.5286C117.041 82.5215 117.739 82.6578 118.39 82.929C119.04 83.2003 119.628 83.6009 120.118 84.1066C120.617 84.591 121.011 85.1729 121.275 85.8162C121.539 86.4594 121.668 87.1502 121.653 87.8454C121.639 89.3381 121.142 90.6317 120.104 91.6695H120.097ZM147.789 86.5233C146.425 85.8125 144.591 85.1586 142.387 84.5331C141.023 84.1635 140.312 83.6233 140.312 82.8698C140.312 82.159 141.179 81.5904 142.387 81.5904C144.179 81.5904 145.998 82.2585 147.903 83.538L151.059 78.7188C148.614 76.7286 145.785 75.7334 142.501 75.7334C139.629 75.7334 137.312 76.4016 135.606 77.7663C133.9 79.0884 133.033 80.837 133.033 82.9978C133.033 85.8267 134.441 87.9023 137.312 89.2243C137.852 89.4802 138.933 89.8498 140.468 90.39C142.046 90.9302 142.871 91.1719 142.999 91.2146C143.823 91.5415 144.25 91.968 144.25 92.5082C144.25 93.4607 143.425 93.9582 141.804 93.9582C139.43 93.9582 137.156 93.0058 134.952 91.1008L131.669 96.048C134.455 98.6637 137.81 100 141.833 100C144.861 100 147.235 99.2892 149.012 97.8818C150.803 96.4176 151.67 94.5979 151.67 92.3518C151.685 89.6792 150.561 87.888 147.789 86.5233Z" fill="#202239"/>
<path d="M100.162 36H92.8129V78.2212C91.1496 76.6433 89.0741 75.8614 86.629 75.8614C83.4304 75.8614 80.772 77.0271 78.6112 79.3016C76.493 81.5904 75.4126 84.4478 75.4126 87.9023C75.4126 91.3852 76.493 94.2568 78.6112 96.5455C80.7293 98.8343 83.4304 99.9573 86.629 99.9573C89.1594 99.9573 91.3202 99.0902 93.0261 97.3843V99.3745H100.162V36ZM87.8799 93.2474C86.3873 93.2474 85.1363 92.7499 84.1412 91.7121C83.1461 90.6744 82.6485 89.3807 82.6485 87.8454C82.6353 87.1541 82.7605 86.4672 83.0169 85.8251C83.2733 85.183 83.6555 84.5987 84.1412 84.1066C84.6175 83.5944 85.197 83.1889 85.8414 82.9169C86.4859 82.6449 87.1806 82.5126 87.8799 82.5286C90.9079 82.5286 93.1114 84.8601 93.1114 87.8454C93.1114 90.8734 90.9079 93.2474 87.8799 93.2474Z" fill="#202239"/>
</g>
<path d="M52.6182 15.0298H47.8696V13.1133H52.6182C53.5378 13.1133 54.2824 12.9668 54.8521 12.6738C55.4217 12.3809 55.8368 11.974 56.0972 11.4531C56.3657 10.9323 56.5 10.3382 56.5 9.6709C56.5 9.06055 56.3657 8.48682 56.0972 7.94971C55.8368 7.4126 55.4217 6.98128 54.8521 6.65576C54.2824 6.3221 53.5378 6.15527 52.6182 6.15527H48.4189V22H46.063V4.22656H52.6182C53.9609 4.22656 55.0962 4.4585 56.0239 4.92236C56.9517 5.38623 57.6556 6.02913 58.1357 6.85107C58.6159 7.66488 58.856 8.59668 58.856 9.64648C58.856 10.7858 58.6159 11.7583 58.1357 12.564C57.6556 13.3696 56.9517 13.984 56.0239 14.4072C55.0962 14.8223 53.9609 15.0298 52.6182 15.0298ZM60.7236 15.5425V15.2617C60.7236 14.3096 60.862 13.4266 61.1387 12.6128C61.4154 11.7909 61.8141 11.0788 62.335 10.4766C62.8558 9.86621 63.4865 9.39421 64.2271 9.06055C64.9676 8.71875 65.7977 8.54785 66.7173 8.54785C67.645 8.54785 68.4792 8.71875 69.2197 9.06055C69.9684 9.39421 70.6032 9.86621 71.124 10.4766C71.653 11.0788 72.0558 11.7909 72.3325 12.6128C72.6092 13.4266 72.7476 14.3096 72.7476 15.2617V15.5425C72.7476 16.4946 72.6092 17.3776 72.3325 18.1914C72.0558 19.0052 71.653 19.7173 71.124 20.3276C70.6032 20.9299 69.9725 21.4019 69.2319 21.7437C68.4995 22.0773 67.6694 22.2441 66.7417 22.2441C65.814 22.2441 64.9798 22.0773 64.2393 21.7437C63.4987 21.4019 62.8639 20.9299 62.335 20.3276C61.8141 19.7173 61.4154 19.0052 61.1387 18.1914C60.862 17.3776 60.7236 16.4946 60.7236 15.5425ZM62.9819 15.2617V15.5425C62.9819 16.2017 63.0592 16.8242 63.2139 17.4102C63.3685 17.988 63.6004 18.5007 63.9097 18.9482C64.2271 19.3958 64.6217 19.7498 65.0938 20.0103C65.5658 20.2625 66.1151 20.3887 66.7417 20.3887C67.3602 20.3887 67.9014 20.2625 68.3652 20.0103C68.8372 19.7498 69.2279 19.3958 69.5371 18.9482C69.8464 18.5007 70.0783 17.988 70.2329 17.4102C70.3957 16.8242 70.4771 16.2017 70.4771 15.5425V15.2617C70.4771 14.6107 70.3957 13.9963 70.2329 13.4185C70.0783 12.8325 69.8423 12.3158 69.5249 11.8682C69.2157 11.4124 68.825 11.0544 68.353 10.7939C67.8892 10.5335 67.3439 10.4033 66.7173 10.4033C66.0988 10.4033 65.5535 10.5335 65.0815 10.7939C64.6177 11.0544 64.2271 11.4124 63.9097 11.8682C63.6004 12.3158 63.3685 12.8325 63.2139 13.4185C63.0592 13.9963 62.9819 14.6107 62.9819 15.2617ZM78.9243 19.6562L82.3179 8.79199H83.8071L83.5142 10.9526L80.0596 22H78.6069L78.9243 19.6562ZM76.6416 8.79199L79.5347 19.7783L79.7422 22H78.2163L74.3833 8.79199H76.6416ZM87.0542 19.6929L89.813 8.79199H92.0591L88.2261 22H86.7124L87.0542 19.6929ZM84.1367 8.79199L87.457 19.4731L87.8354 22H86.395L82.8428 10.9282L82.5498 8.79199H84.1367ZM99.8594 22.2441C98.9398 22.2441 98.1056 22.0895 97.3569 21.7803C96.6164 21.4629 95.9775 21.0194 95.4404 20.4497C94.9115 19.88 94.5046 19.2046 94.2197 18.4233C93.9349 17.6421 93.7925 16.7876 93.7925 15.8599V15.3472C93.7925 14.2729 93.9512 13.3167 94.2686 12.4785C94.5859 11.6322 95.0173 10.916 95.5625 10.3301C96.1077 9.74414 96.7262 9.30062 97.418 8.99951C98.1097 8.6984 98.8258 8.54785 99.5664 8.54785C100.51 8.54785 101.324 8.71061 102.008 9.03613C102.7 9.36165 103.265 9.81738 103.705 10.4033C104.144 10.9811 104.47 11.6647 104.681 12.4541C104.893 13.2354 104.999 14.0898 104.999 15.0176V16.0308H95.1353V14.1875H102.74V14.0166C102.708 13.4307 102.586 12.861 102.374 12.3076C102.171 11.7542 101.845 11.2985 101.397 10.9404C100.95 10.5824 100.34 10.4033 99.5664 10.4033C99.0537 10.4033 98.5817 10.5132 98.1504 10.7329C97.7191 10.9445 97.3488 11.2619 97.0396 11.6851C96.7303 12.1082 96.4902 12.625 96.3193 13.2354C96.1484 13.8457 96.063 14.5496 96.063 15.3472V15.8599C96.063 16.4865 96.1484 17.0765 96.3193 17.6299C96.4984 18.1751 96.7547 18.6553 97.0884 19.0703C97.4302 19.4854 97.8411 19.8109 98.3213 20.0469C98.8096 20.2829 99.363 20.4009 99.9814 20.4009C100.779 20.4009 101.454 20.2381 102.008 19.9126C102.561 19.5871 103.045 19.1517 103.46 18.6064L104.828 19.6929C104.543 20.1242 104.181 20.5352 103.741 20.9258C103.302 21.3164 102.761 21.6338 102.118 21.8779C101.483 22.1221 100.73 22.2441 99.8594 22.2441ZM109.894 10.8672V22H107.635V8.79199H109.833L109.894 10.8672ZM114.02 8.71875L114.007 10.8184C113.82 10.7777 113.641 10.7533 113.47 10.7451C113.307 10.7288 113.12 10.7207 112.909 10.7207C112.388 10.7207 111.928 10.8021 111.529 10.9648C111.131 11.1276 110.793 11.3555 110.516 11.6484C110.239 11.9414 110.02 12.2913 109.857 12.6982C109.702 13.097 109.601 13.5365 109.552 14.0166L108.917 14.3828C108.917 13.5853 108.994 12.8366 109.149 12.1367C109.312 11.4368 109.56 10.8184 109.894 10.2812C110.227 9.736 110.65 9.31283 111.163 9.01172C111.684 8.70247 112.302 8.54785 113.019 8.54785C113.181 8.54785 113.368 8.5682 113.58 8.60889C113.792 8.64144 113.938 8.67806 114.02 8.71875ZM121.344 22.2441C120.424 22.2441 119.59 22.0895 118.841 21.7803C118.101 21.4629 117.462 21.0194 116.925 20.4497C116.396 19.88 115.989 19.2046 115.704 18.4233C115.419 17.6421 115.277 16.7876 115.277 15.8599V15.3472C115.277 14.2729 115.436 13.3167 115.753 12.4785C116.07 11.6322 116.502 10.916 117.047 10.3301C117.592 9.74414 118.211 9.30062 118.902 8.99951C119.594 8.6984 120.31 8.54785 121.051 8.54785C121.995 8.54785 122.809 8.71061 123.492 9.03613C124.184 9.36165 124.75 9.81738 125.189 10.4033C125.628 10.9811 125.954 11.6647 126.166 12.4541C126.377 13.2354 126.483 14.0898 126.483 15.0176V16.0308H116.62V14.1875H124.225V14.0166C124.192 13.4307 124.07 12.861 123.858 12.3076C123.655 11.7542 123.329 11.2985 122.882 10.9404C122.434 10.5824 121.824 10.4033 121.051 10.4033C120.538 10.4033 120.066 10.5132 119.635 10.7329C119.203 10.9445 118.833 11.2619 118.524 11.6851C118.215 12.1082 117.975 12.625 117.804 13.2354C117.633 13.8457 117.547 14.5496 117.547 15.3472V15.8599C117.547 16.4865 117.633 17.0765 117.804 17.6299C117.983 18.1751 118.239 18.6553 118.573 19.0703C118.915 19.4854 119.326 19.8109 119.806 20.0469C120.294 20.2829 120.847 20.4009 121.466 20.4009C122.263 20.4009 122.939 20.2381 123.492 19.9126C124.046 19.5871 124.53 19.1517 124.945 18.6064L126.312 19.6929C126.027 20.1242 125.665 20.5352 125.226 20.9258C124.786 21.3164 124.245 21.6338 123.602 21.8779C122.967 22.1221 122.215 22.2441 121.344 22.2441ZM137.445 19.4365V3.25H139.715V22H137.64L137.445 19.4365ZM128.558 15.5425V15.2861C128.558 14.277 128.68 13.3615 128.924 12.5396C129.177 11.7095 129.531 10.9974 129.986 10.4033C130.45 9.80924 131 9.35352 131.634 9.03613C132.277 8.71061 132.993 8.54785 133.783 8.54785C134.613 8.54785 135.337 8.69434 135.956 8.9873C136.582 9.27214 137.111 9.69124 137.542 10.2446C137.982 10.7899 138.328 11.4491 138.58 12.2222C138.832 12.9953 139.007 13.8701 139.105 14.8467V15.9697C139.015 16.9382 138.84 17.8089 138.58 18.582C138.328 19.3551 137.982 20.0143 137.542 20.5596C137.111 21.1048 136.582 21.5239 135.956 21.8169C135.329 22.1017 134.597 22.2441 133.758 22.2441C132.985 22.2441 132.277 22.0773 131.634 21.7437C131 21.41 130.45 20.9421 129.986 20.3398C129.531 19.7376 129.177 19.0296 128.924 18.2158C128.68 17.3939 128.558 16.5028 128.558 15.5425ZM130.829 15.2861V15.5425C130.829 16.2017 130.894 16.8201 131.024 17.3979C131.162 17.9757 131.374 18.4844 131.659 18.9238C131.944 19.3633 132.306 19.7091 132.745 19.9614C133.185 20.2056 133.709 20.3276 134.32 20.3276C135.069 20.3276 135.683 20.1689 136.163 19.8516C136.651 19.5342 137.042 19.1151 137.335 18.5942C137.628 18.0734 137.856 17.5078 138.019 16.8975V13.9556C137.921 13.508 137.778 13.0767 137.591 12.6616C137.412 12.2384 137.176 11.8641 136.883 11.5386C136.598 11.2049 136.244 10.9404 135.821 10.7451C135.406 10.5498 134.914 10.4521 134.344 10.4521C133.726 10.4521 133.193 10.5824 132.745 10.8428C132.306 11.0951 131.944 11.445 131.659 11.8926C131.374 12.332 131.162 12.8447 131.024 13.4307C130.894 14.0085 130.829 14.627 130.829 15.2861ZM149.42 3.25H151.69V19.4365L151.495 22H149.42V3.25ZM160.614 15.2861V15.5425C160.614 16.5028 160.5 17.3939 160.272 18.2158C160.044 19.0296 159.71 19.7376 159.271 20.3398C158.832 20.9421 158.294 21.41 157.66 21.7437C157.025 22.0773 156.297 22.2441 155.475 22.2441C154.636 22.2441 153.9 22.1017 153.265 21.8169C152.639 21.5239 152.11 21.1048 151.678 20.5596C151.247 20.0143 150.901 19.3551 150.641 18.582C150.388 17.8089 150.213 16.9382 150.116 15.9697V14.8467C150.213 13.8701 150.388 12.9953 150.641 12.2222C150.901 11.4491 151.247 10.7899 151.678 10.2446C152.11 9.69124 152.639 9.27214 153.265 8.9873C153.892 8.69434 154.62 8.54785 155.45 8.54785C156.28 8.54785 157.017 8.71061 157.66 9.03613C158.303 9.35352 158.84 9.80924 159.271 10.4033C159.71 10.9974 160.044 11.7095 160.272 12.5396C160.5 13.3615 160.614 14.277 160.614 15.2861ZM158.343 15.5425V15.2861C158.343 14.627 158.282 14.0085 158.16 13.4307C158.038 12.8447 157.843 12.332 157.574 11.8926C157.306 11.445 156.952 11.0951 156.512 10.8428C156.073 10.5824 155.532 10.4521 154.889 10.4521C154.319 10.4521 153.823 10.5498 153.399 10.7451C152.984 10.9404 152.63 11.2049 152.337 11.5386C152.044 11.8641 151.804 12.2384 151.617 12.6616C151.438 13.0767 151.304 13.508 151.214 13.9556V16.8975C151.345 17.4671 151.556 18.0164 151.849 18.5454C152.15 19.0662 152.549 19.4935 153.045 19.8271C153.55 20.1608 154.173 20.3276 154.913 20.3276C155.523 20.3276 156.044 20.2056 156.476 19.9614C156.915 19.7091 157.269 19.3633 157.538 18.9238C157.814 18.4844 158.018 17.9757 158.148 17.3979C158.278 16.8201 158.343 16.2017 158.343 15.5425ZM167.035 20.6328L170.709 8.79199H173.126L167.828 24.0386C167.706 24.3641 167.543 24.714 167.34 25.0884C167.145 25.4709 166.892 25.833 166.583 26.1748C166.274 26.5166 165.899 26.7933 165.46 27.0049C165.029 27.2246 164.512 27.3345 163.91 27.3345C163.731 27.3345 163.503 27.3101 163.226 27.2612C162.949 27.2124 162.754 27.1717 162.64 27.1392L162.628 25.3081C162.693 25.3162 162.795 25.3244 162.933 25.3325C163.08 25.3488 163.181 25.3569 163.238 25.3569C163.751 25.3569 164.186 25.2878 164.544 25.1494C164.903 25.0192 165.204 24.7954 165.448 24.478C165.7 24.1688 165.916 23.7415 166.095 23.1963L167.035 20.6328ZM164.337 8.79199L167.767 19.0459L168.353 21.4263L166.729 22.2563L161.871 8.79199H164.337Z" fill="#99A0B0"/>
<defs>
<clipPath id="clip0_2601_115">
<rect width="178.424" height="64" fill="white" transform="translate(0 36)"/>
</clipPath>
</defs>
</svg>
