<svg width="109" height="48" viewBox="0 0 109 48" fill="none" xmlns="http://www.w3.org/2000/svg">
<g clip-path="url(#clip0_1347_41916)">
<path d="M15 9C12.0333 9 9.13319 9.87973 6.66645 11.528C4.19971 13.1762 2.27713 15.5189 1.14181 18.2597C0.00649937 21.0006 -0.290551 24.0166 0.288227 26.9264C0.867006 29.8361 2.29562 32.5088 4.3934 34.6066C6.49119 36.7044 9.16393 38.133 12.0736 38.7118C14.9834 39.2906 17.9994 38.9935 20.7403 37.8582C23.4811 36.7229 25.8238 34.8003 27.472 32.3335C29.1203 29.8668 30 26.9667 30 24C29.9951 20.0233 28.4132 16.2108 25.6012 13.3988C22.7892 10.5868 18.9767 9.0049 15 9ZM22.545 28C22.5466 28.2141 22.4892 28.4245 22.3789 28.608C22.2686 28.7915 22.1098 28.941 21.92 29.04L15.95 32.165C15.7822 32.2513 15.5962 32.2963 15.4075 32.2963C15.2188 32.2963 15.0328 32.2513 14.865 32.165L8.9 29.04C8.70959 28.9412 8.55006 28.7919 8.43893 28.6085C8.32779 28.425 8.26935 28.2145 8.27001 28V24.09L14.53 27.375C14.8015 27.5143 15.1023 27.5869 15.4075 27.5869C15.7127 27.5869 16.0135 27.5143 16.285 27.375L22.165 24.29L22.545 24.09V28ZM24.37 22.325L22.545 23.285C22.325 23.395 16.345 26.535 15.95 26.74C15.7829 26.8286 15.5967 26.875 15.4075 26.875C15.2184 26.875 15.0321 26.8286 14.865 26.74C13.165 25.85 8.01501 23.145 6.53001 22.37V26.115C6.69521 26.1831 6.83851 26.2954 6.94425 26.4394C7.05 26.5835 7.11411 26.7538 7.12959 26.9319C7.14507 27.1099 7.11132 27.2888 7.03204 27.4489C6.95275 27.6091 6.83097 27.7444 6.68001 27.84L7.285 29.665C7.34292 29.8409 7.35824 30.028 7.32971 30.211C7.30118 30.3939 7.22961 30.5675 7.1209 30.7174C7.01219 30.8673 6.86943 30.9892 6.70438 31.0732C6.53934 31.1571 6.35671 31.2007 6.17154 31.2003C5.98637 31.1998 5.80395 31.1555 5.63928 31.0708C5.47461 30.9861 5.33241 30.8635 5.22437 30.7131C5.11633 30.5627 5.04555 30.3888 5.01784 30.2057C4.99013 30.0227 5.0063 29.8356 5.06501 29.66L5.67 27.84C5.51904 27.7444 5.39726 27.6091 5.31797 27.4489C5.23869 27.2888 5.20494 27.1099 5.22042 26.9319C5.2359 26.7538 5.30001 26.5835 5.40576 26.4394C5.5115 26.2954 5.6548 26.1831 5.82001 26.115V21.29C5.81837 21.0759 5.87585 20.8655 5.98613 20.682C6.09641 20.4985 6.2552 20.349 6.445 20.25L14.865 15.835C15.0328 15.7488 15.2188 15.7038 15.4075 15.7038C15.5962 15.7038 15.7822 15.7488 15.95 15.835L24.37 20.25C24.5598 20.3488 24.719 20.4977 24.83 20.6807C24.941 20.8636 24.9998 21.0735 24.9998 21.2875C24.9998 21.5015 24.941 21.7114 24.83 21.8943C24.719 22.0773 24.5598 22.2262 24.37 22.325Z" fill="#3CA15F"/>
<path d="M38.8611 19.2611V22.807H43.4465V24.9649H38.8611V28.5868H44.7539V30.8207H36V17.0272H44.7539V19.2611H38.8611Z" fill="#1C1C1C"/>
<path d="M59.2058 23.9192C59.2058 24.9269 59.0353 25.8553 58.6942 26.7045C58.3595 27.5474 57.8826 28.2731 57.2637 28.8815C56.651 29.4899 55.912 29.9652 55.0468 30.3074C54.1815 30.6496 53.2214 30.8207 52.1667 30.8207H46.8802V17.0272H52.1667C53.2214 17.0272 54.1815 17.1983 55.0468 17.5405C55.912 17.8827 56.651 18.3612 57.2637 18.9759C57.8826 19.5843 58.3595 20.31 58.6942 21.1529C59.0353 21.9958 59.2058 22.9179 59.2058 23.9192ZM56.2878 23.9192C56.2878 23.1967 56.1931 22.5471 56.0036 21.9704C55.8141 21.3937 55.5426 20.9057 55.1889 20.5065C54.8352 20.1072 54.4025 19.7998 53.8909 19.5843C53.3857 19.3689 52.8109 19.2611 52.1667 19.2611H49.7413V28.5868H52.1667C52.8109 28.5868 53.3857 28.4822 53.8909 28.2731C54.4025 28.0576 54.8352 27.7502 55.1889 27.351C55.5426 26.9454 55.8141 26.4542 56.0036 25.8775C56.1931 25.3008 56.2878 24.648 56.2878 23.9192Z" fill="#1C1C1C"/>
<path d="M66.9222 28.5392C67.3832 28.5392 67.7969 28.4632 68.1633 28.3111C68.5296 28.1526 68.8391 27.9308 69.0917 27.6456C69.3443 27.3605 69.537 27.0151 69.6696 26.6095C69.8023 26.2039 69.8686 25.7476 69.8686 25.2406V17.0272H72.7108V25.2406C72.7108 26.0771 72.575 26.8471 72.3034 27.5506C72.0381 28.2477 71.656 28.8498 71.157 29.3568C70.6581 29.8638 70.0517 30.2599 69.338 30.5451C68.6243 30.8302 67.819 30.9728 66.9222 30.9728C66.0253 30.9728 65.2169 30.8302 64.4969 30.5451C63.7831 30.2599 63.1768 29.8638 62.6779 29.3568C62.1789 28.8498 61.7936 28.2477 61.522 27.5506C61.2568 26.8471 61.1241 26.0771 61.1241 25.2406V17.0272H63.9663V25.2406C63.9663 25.7476 64.0326 26.2039 64.1653 26.6095C64.2979 27.0151 64.4905 27.3605 64.7432 27.6456C64.9958 27.9308 65.3053 28.1526 65.6716 28.3111C66.0379 28.4632 66.4548 28.5392 66.9222 28.5392Z" fill="#1C1C1C"/>
<path d="M83.5701 28.5012V30.8207H75.413V17.0272H78.2552V28.5012H83.5701Z" fill="#1C1C1C"/>
<path d="M92.5696 25.5828L91.0822 21.362C90.9938 21.1402 90.899 20.8804 90.798 20.5825C90.7032 20.2846 90.6116 19.9614 90.5232 19.6129C90.4348 19.9678 90.3401 20.2973 90.239 20.6015C90.1443 20.8994 90.0527 21.1592 89.9643 21.381L88.4863 25.5828H92.5696ZM97.3445 30.8207H95.137C94.8907 30.8207 94.6886 30.7637 94.5307 30.6496C94.3791 30.5292 94.2654 30.3771 94.1896 30.1933L93.2612 27.5601H87.7853L86.8568 30.1933C86.7937 30.3518 86.6831 30.4975 86.5252 30.6306C86.3673 30.7574 86.1684 30.8207 85.9284 30.8207H83.702L89.0737 17.0272H91.9822L97.3445 30.8207Z" fill="#1C1C1C"/>
<path d="M103.894 28.6343C104.349 28.6343 104.721 28.5804 105.012 28.4727C105.309 28.3586 105.545 28.2097 105.722 28.0259C105.899 27.8421 106.022 27.633 106.092 27.3985C106.161 27.1577 106.196 26.9105 106.196 26.657C106.196 26.3781 106.155 26.1278 106.073 25.906C105.991 25.6842 105.858 25.4972 105.675 25.3451C105.492 25.1867 105.252 25.0663 104.955 24.9839C104.664 24.9015 104.304 24.8603 103.875 24.8603H101.459V28.6343H103.894ZM101.459 19.1946V22.921H103.325C103.723 22.921 104.077 22.8894 104.386 22.826C104.696 22.7563 104.955 22.6485 105.163 22.5028C105.372 22.357 105.53 22.1669 105.637 21.9324C105.751 21.6916 105.807 21.4032 105.807 21.0673C105.807 20.7251 105.76 20.4336 105.665 20.1927C105.577 19.9519 105.438 19.7586 105.249 19.6129C105.059 19.4671 104.819 19.3625 104.529 19.2992C104.238 19.2294 103.894 19.1946 103.496 19.1946H101.459ZM103.496 17.0272C104.418 17.0272 105.204 17.1159 105.855 17.2933C106.512 17.4645 107.045 17.7116 107.456 18.0348C107.873 18.3517 108.176 18.7383 108.365 19.1946C108.555 19.6509 108.65 20.1611 108.65 20.7251C108.65 21.042 108.602 21.3462 108.508 21.6377C108.419 21.9292 108.277 22.2049 108.081 22.4647C107.892 22.7182 107.645 22.9496 107.342 23.1587C107.039 23.3678 106.679 23.5453 106.262 23.691C107.197 23.9129 107.889 24.2741 108.337 24.7748C108.785 25.2754 109.01 25.925 109.01 26.7235C109.01 27.3066 108.896 27.8484 108.669 28.3491C108.448 28.8498 108.122 29.2839 107.693 29.6515C107.263 30.019 106.733 30.3074 106.101 30.5165C105.476 30.7193 104.756 30.8207 103.941 30.8207H98.6168V17.0272H103.496Z" fill="#1C1C1C"/>
</g>
<defs>
<clipPath id="clip0_1347_41916">
<rect width="109" height="48" fill="white"/>
</clipPath>
</defs>
</svg>
