<svg width="248" height="60" viewBox="0 0 248 60" fill="none" xmlns="http://www.w3.org/2000/svg">
<path d="M45.739 16.9698V44.8286L59.6678 58.7574V3.04102H3.95117L17.8798 16.9698H45.739Z" fill="white"/>
<path d="M45.7371 44.8277L17.8798 16.9698L17.8789 44.8277H45.7371Z" fill="white"/>
<path d="M80.5616 8.59054H82.2488V16.9555H84.7724V13.6379H86.6298L88.6146 16.9555H91.4362L89.0826 13.1275C90.1318 12.5461 90.8264 11.5395 90.8264 10.2351C90.8264 8.17934 89.1676 6.97414 86.9134 6.97414H80.5616V8.59054ZM84.7724 11.6813V8.97334H86.6298C87.5372 8.97334 88.2602 9.45534 88.2602 10.3343C88.2602 11.1993 87.5372 11.6813 86.6298 11.6813H84.7724ZM100.24 16.8279V15.3533C100.169 15.3959 100.042 15.4243 99.9146 15.4243C99.6452 15.4243 99.39 15.3109 99.39 14.9705V12.3335C99.39 10.5329 98.0572 9.41294 95.7604 9.41294C94.5552 9.41294 93.421 9.72474 92.7546 10.1217V12.0215C93.4918 11.4545 94.4418 11.1993 95.2926 11.1993C96.3134 11.1993 97.0364 11.5679 97.0364 12.3477V12.6595C96.611 12.5461 96.0582 12.4753 95.5194 12.4753C93.7612 12.4753 92.1166 13.1557 92.1166 14.8287C92.1166 16.1615 93.3076 17.1399 94.853 17.1399C96.0864 17.1399 96.7386 16.7003 97.1356 16.1615C97.3908 16.8137 98.1282 17.1399 98.9504 17.1399C99.6168 17.1399 100.113 16.9271 100.24 16.8279ZM94.5268 14.7011C94.5268 14.0631 95.2642 13.8789 95.8738 13.8789C96.285 13.8789 96.6962 13.9355 97.0364 14.0349V14.8571C96.6678 15.2541 96.2282 15.4809 95.6328 15.4809C94.9664 15.4809 94.5268 15.1691 94.5268 14.7011ZM109.002 19.6635V9.59714H106.705V10.8165C106.436 10.2209 105.67 9.41294 104.366 9.41294C102.509 9.41294 101.048 10.8589 101.048 13.2833C101.048 15.6937 102.509 17.1399 104.366 17.1399C105.514 17.1399 106.252 16.5159 106.592 15.9489V19.6635H109.002ZM103.473 13.2833C103.473 12.0925 104.082 11.3411 105.047 11.3411C105.628 11.3411 106.152 11.5253 106.592 11.9791V14.5877C106.152 15.0273 105.628 15.2117 105.047 15.2117C104.082 15.2117 103.473 14.4601 103.473 13.2833ZM118.544 16.8279V15.3533C118.473 15.3959 118.346 15.4243 118.218 15.4243C117.949 15.4243 117.693 15.3109 117.693 14.9705V12.3335C117.693 10.5329 116.361 9.41294 114.064 9.41294C112.859 9.41294 111.724 9.72474 111.058 10.1217V12.0215C111.795 11.4545 112.745 11.1993 113.596 11.1993C114.617 11.1993 115.34 11.5679 115.34 12.3477V12.6595C114.914 12.5461 114.362 12.4753 113.823 12.4753C112.065 12.4753 110.42 13.1557 110.42 14.8287C110.42 16.1615 111.611 17.1399 113.156 17.1399C114.39 17.1399 115.042 16.7003 115.439 16.1615C115.694 16.8137 116.432 17.1399 117.254 17.1399C117.92 17.1399 118.416 16.9271 118.544 16.8279ZM112.83 14.7011C112.83 14.0631 113.568 13.8789 114.177 13.8789C114.588 13.8789 115 13.9355 115.34 14.0349V14.8571C114.971 15.2541 114.532 15.4809 113.936 15.4809C113.27 15.4809 112.83 15.1691 112.83 14.7011ZM122.613 16.9555V11.8373C122.911 11.5537 123.336 11.4119 123.804 11.4119C124.527 11.4119 124.981 11.8515 124.981 12.6029V16.9555H127.391V11.8515C127.689 11.5537 128.128 11.4119 128.582 11.4119C129.319 11.4119 129.773 11.8515 129.773 12.6029V16.9555H132.183V11.9791C132.183 10.3343 131.049 9.41294 129.461 9.41294C128.185 9.41294 127.419 10.0649 127.037 10.5753C126.654 9.90914 125.916 9.41294 124.839 9.41294C123.733 9.41294 122.953 9.99414 122.5 10.5895V9.59714H118.686V11.1567H120.203V16.9555H122.613ZM136.465 6.64814H132.538V8.20774H134.055V16.9555H136.465V6.64814ZM141.385 9.59714H137.457V11.1567H138.974V16.9555H141.385V9.59714ZM138.762 7.42794C138.762 8.13674 139.357 8.66134 140.109 8.66134C140.874 8.66134 141.47 8.13674 141.47 7.42794C141.47 6.73314 140.874 6.19434 140.109 6.19434C139.357 6.19434 138.762 6.73314 138.762 7.42794ZM151.65 6.97414H145.723V8.59054H147.425V15.3393H145.723V16.9555H151.65V15.3393H149.948V8.59054H151.65V6.97414ZM160.312 19.6635V9.59714H158.016V10.8165C157.746 10.2209 156.981 9.41294 155.676 9.41294C153.819 9.41294 152.359 10.8589 152.359 13.2833C152.359 15.6937 153.819 17.1399 155.676 17.1399C156.825 17.1399 157.562 16.5159 157.902 15.9489V19.6635H160.312ZM154.783 13.2833C154.783 12.0925 155.393 11.3411 156.357 11.3411C156.938 11.3411 157.463 11.5253 157.902 11.9791V14.5877C157.463 15.0273 156.938 15.2117 156.357 15.2117C155.393 15.2117 154.783 14.4601 154.783 13.2833ZM165.19 14.2049V11.3977H167.033V9.59714H165.19V7.71154H162.779V9.59714H161.588V11.3977H162.779V14.4743C162.779 16.2607 163.899 17.1399 165.643 17.1399C166.14 17.1399 166.763 17.0123 167.033 16.8563V15.0841C166.877 15.1691 166.579 15.2257 166.253 15.2257C165.601 15.2257 165.19 14.8997 165.19 14.2049ZM171.626 9.59714H167.699V11.1567H169.216V16.9555H171.626V9.59714ZM169.003 7.42794C169.003 8.13674 169.599 8.66134 170.35 8.66134C171.116 8.66134 171.711 8.13674 171.711 7.42794C171.711 6.73314 171.116 6.19434 170.35 6.19434C169.599 6.19434 169.003 6.73314 169.003 7.42794ZM173.299 14.5311V16.4025C173.881 16.8137 175.199 17.1399 176.589 17.1399C178.517 17.1399 180.006 16.2465 180.006 14.7153C180.006 13.2267 178.701 12.6737 177.326 12.4043L176.603 12.2625C175.88 12.1209 175.554 12.0073 175.554 11.7097C175.554 11.3693 175.993 11.1993 176.731 11.1993C177.666 11.1993 178.687 11.4827 179.538 11.9791V10.1359C178.956 9.72474 177.936 9.41294 176.631 9.41294C174.59 9.41294 173.143 10.3911 173.143 11.7947C173.143 13.1841 174.334 13.8505 175.908 14.1341L176.617 14.2617C177.326 14.3893 177.595 14.5027 177.595 14.8005C177.595 15.1833 177.057 15.3533 176.263 15.3533C175.242 15.3533 173.98 14.9281 173.299 14.5311ZM185.138 9.41294C182.799 9.41294 181.012 10.9441 181.012 13.2693C181.012 15.6085 182.799 17.1399 185.138 17.1399C187.435 17.1399 189.235 15.6085 189.235 13.2693C189.235 10.9441 187.435 9.41294 185.138 9.41294ZM183.437 13.2693C183.437 12.1491 184.146 11.3411 185.138 11.3411C186.116 11.3411 186.825 12.1491 186.825 13.2693C186.825 14.4035 186.116 15.2117 185.138 15.2117C184.146 15.2117 183.437 14.4035 183.437 13.2693ZM193.631 9.41294C191.773 9.41294 190.313 10.8589 190.313 13.2833C190.313 15.6937 191.773 17.1399 193.631 17.1399C194.935 17.1399 195.701 16.3317 195.97 15.7361V16.9555H198.267V6.64814H195.857V10.6037C195.516 10.0367 194.779 9.41294 193.631 9.41294ZM192.737 13.2833C192.737 12.0925 193.347 11.3411 194.311 11.3411C194.892 11.3411 195.417 11.5253 195.857 11.9791V14.5877C195.417 15.0273 194.892 15.2117 194.311 15.2117C193.347 15.2117 192.737 14.4601 192.737 13.2833ZM203.187 9.59714H199.259V11.1567H200.776V16.9555H203.187V9.59714ZM200.564 7.42794C200.564 8.13674 201.159 8.66134 201.911 8.66134C202.676 8.66134 203.272 8.13674 203.272 7.42794C203.272 6.73314 202.676 6.19434 201.911 6.19434C201.159 6.19434 200.564 6.73314 200.564 7.42794ZM209.992 9.59714L208.347 14.3467L206.845 9.59714H204.278L207.029 16.9271C206.689 17.6361 206.164 18.0189 205.384 18.0189C205.016 18.0189 204.732 17.9337 204.59 17.8487V19.7061C204.775 19.8053 205.242 19.9471 205.81 19.9471C207.78 19.9471 209.042 18.6143 209.935 16.2465L212.445 9.59714H209.992ZM216.982 9.41294C214.642 9.41294 212.856 10.9441 212.856 13.2693C212.856 15.6085 214.642 17.1399 216.982 17.1399C219.279 17.1399 221.079 15.6085 221.079 13.2693C221.079 10.9441 219.279 9.41294 216.982 9.41294ZM215.28 13.2693C215.28 12.1491 215.989 11.3411 216.982 11.3411C217.96 11.3411 218.669 12.1491 218.669 13.2693C218.669 14.4035 217.96 15.2117 216.982 15.2117C215.989 15.2117 215.28 14.4035 215.28 13.2693ZM225.403 14.2049V11.3977H227.247V9.59714H225.403V7.71154H222.993V9.59714H221.802V11.3977H222.993V14.4743C222.993 16.2607 224.113 17.1399 225.857 17.1399C226.353 17.1399 226.977 17.0123 227.247 16.8563V15.0841C227.091 15.1691 226.793 15.2257 226.467 15.2257C225.815 15.2257 225.403 14.8997 225.403 14.2049ZM88.7564 27.0361H86.3036L84.73 31.6015L83.1562 27.0361H80.59L83.4398 34.3945H85.9066L88.7564 27.0361ZM97.2774 34.2669V32.7923C97.2066 32.8349 97.079 32.8633 96.9514 32.8633C96.682 32.8633 96.4268 32.7499 96.4268 32.4095V29.7725C96.4268 27.9719 95.094 26.8519 92.7972 26.8519C91.592 26.8519 90.4578 27.1637 89.7914 27.5607V29.4605C90.5286 28.8935 91.4786 28.6383 92.3294 28.6383C93.3502 28.6383 94.0732 29.0069 94.0732 29.7867V30.0985C93.6478 29.9851 93.095 29.9143 92.5562 29.9143C90.798 29.9143 89.1534 30.5947 89.1534 32.2677C89.1534 33.6005 90.3444 34.5789 91.8898 34.5789C93.1232 34.5789 93.7754 34.1393 94.1724 33.6005C94.4276 34.2527 95.165 34.5789 95.9872 34.5789C96.6536 34.5789 97.1498 34.3661 97.2774 34.2669ZM91.5636 32.1401C91.5636 31.5021 92.301 31.3179 92.9106 31.3179C93.3218 31.3179 93.733 31.3745 94.0732 31.4739V32.2961C93.7046 32.6931 93.265 32.9199 92.6696 32.9199C92.0032 32.9199 91.5636 32.6081 91.5636 32.1401ZM101.006 34.3945H103.558L104.281 32.4521H108.024L108.733 34.3945H111.356L107.485 24.4131H102.537V25.9727H104.267L101.006 34.3945ZM104.919 30.5239L106.153 27.0787L107.372 30.5239H104.919ZM115.794 37.3861C118.048 37.3861 119.863 36.1951 119.863 33.9125V27.0361H117.566V28.0569C117.24 27.5039 116.474 26.8519 115.297 26.8519C113.426 26.8519 111.966 28.2271 111.966 30.5523C111.966 32.8775 113.426 34.2385 115.297 34.2385C116.361 34.2385 117.098 33.6997 117.467 33.1893V33.8699C117.467 35.1743 116.389 35.5855 115.368 35.5855C114.376 35.5855 113.483 35.3019 112.674 34.7489V36.6629C113.426 37.1025 114.418 37.3861 115.794 37.3861ZM114.39 30.5523C114.39 29.4181 115 28.7091 115.964 28.7091C116.531 28.7091 117.027 28.8935 117.467 29.2905V31.8283C117.027 32.2253 116.531 32.4095 115.964 32.4095C115 32.4095 114.39 31.6865 114.39 30.5523ZM122.344 34.3945H124.754V29.6449C125.109 29.3045 125.69 29.0493 126.569 29.0493C126.923 29.0493 127.278 29.1061 127.49 29.1629V27.0645C127.363 27.0077 127.108 26.9653 126.867 26.9653C125.69 26.9653 124.953 27.5749 124.641 28.3263V27.0361H120.855V28.5957H122.344V34.3945ZM132.325 26.8519C129.986 26.8519 128.199 28.3831 128.199 30.7083C128.199 33.0475 129.986 34.5789 132.325 34.5789C134.622 34.5789 136.423 33.0475 136.423 30.7083C136.423 28.3831 134.622 26.8519 132.325 26.8519ZM130.624 30.7083C130.624 29.5881 131.333 28.7801 132.325 28.7801C133.303 28.7801 134.012 29.5881 134.012 30.7083C134.012 31.8425 133.303 32.6507 132.325 32.6507C131.333 32.6507 130.624 31.8425 130.624 30.7083ZM140.747 31.6439V28.8367H142.59V27.0361H140.747V25.1505H138.337V27.0361H137.146V28.8367H138.337V31.9133C138.337 33.6997 139.457 34.5789 141.201 34.5789C141.697 34.5789 142.321 34.4513 142.59 34.2953V32.5231C142.434 32.6081 142.136 32.6647 141.81 32.6647C141.158 32.6647 140.747 32.3387 140.747 31.6439ZM143.455 30.6231C143.455 33.1469 145.454 34.5789 148.105 34.5789C149.438 34.5789 150.402 34.2953 150.998 33.8699V32.0693C150.317 32.4663 149.48 32.7357 148.304 32.7357C147.07 32.7357 145.908 32.0977 145.908 31.3037H151.026V30.3537C151.026 28.2129 149.424 26.8519 147.325 26.8519C145.227 26.8519 143.455 28.3547 143.455 30.6231ZM145.908 29.8717C145.95 29.0919 146.531 28.5531 147.34 28.5531C148.134 28.5531 148.672 29.0919 148.701 29.8717H145.908ZM151.664 34.3945H154.301L155.761 32.2111L157.208 34.3945H159.944L157.392 30.7507L159.916 27.0361H157.349L155.889 29.2763L154.429 27.0361H151.692L154.23 30.7083L151.664 34.3945ZM163.985 34.3945V29.3045C164.297 28.9927 164.75 28.8509 165.232 28.8509C166.111 28.8509 166.593 29.2905 166.593 30.1837V34.3945H169.004V29.4463C169.004 27.7733 167.884 26.8519 166.296 26.8519C165.147 26.8519 164.339 27.4331 163.871 28.0285V27.0361H160.057V28.5957H161.574V34.3945H163.985ZM174.491 26.8519C172.151 26.8519 170.365 28.3831 170.365 30.7083C170.365 33.0475 172.151 34.5789 174.491 34.5789C176.787 34.5789 178.588 33.0475 178.588 30.7083C178.588 28.3831 176.787 26.8519 174.491 26.8519ZM172.789 30.7083C172.789 29.5881 173.498 28.7801 174.491 28.7801C175.469 28.7801 176.178 29.5881 176.178 30.7083C176.178 31.8425 175.469 32.6507 174.491 32.6507C173.498 32.6507 172.789 31.8425 172.789 30.7083ZM182.53 24.0871H178.602V25.6467H180.119V34.3945H182.53V24.0871ZM188.087 26.8519C185.748 26.8519 183.962 28.3831 183.962 30.7083C183.962 33.0475 185.748 34.5789 188.087 34.5789C190.384 34.5789 192.185 33.0475 192.185 30.7083C192.185 28.3831 190.384 26.8519 188.087 26.8519ZM186.386 30.7083C186.386 29.5881 187.095 28.7801 188.087 28.7801C189.066 28.7801 189.775 29.5881 189.775 30.7083C189.775 31.8425 189.066 32.6507 188.087 32.6507C187.095 32.6507 186.386 31.8425 186.386 30.7083ZM197.09 37.3861C199.345 37.3861 201.159 36.1951 201.159 33.9125V27.0361H198.863V28.0569C198.537 27.5039 197.771 26.8519 196.594 26.8519C194.723 26.8519 193.262 28.2271 193.262 30.5523C193.262 32.8775 194.723 34.2385 196.594 34.2385C197.658 34.2385 198.395 33.6997 198.763 33.1893V33.8699C198.763 35.1743 197.686 35.5855 196.665 35.5855C195.673 35.5855 194.779 35.3019 193.971 34.7489V36.6629C194.723 37.1025 195.715 37.3861 197.09 37.3861ZM195.687 30.5523C195.687 29.4181 196.296 28.7091 197.261 28.7091C197.828 28.7091 198.324 28.8935 198.763 29.2905V31.8283C198.324 32.2253 197.828 32.4095 197.261 32.4095C196.296 32.4095 195.687 31.6865 195.687 30.5523ZM206.079 27.0361H202.152V28.5957H203.669V34.3945H206.079V27.0361ZM203.456 24.8669C203.456 25.5757 204.052 26.1003 204.803 26.1003C205.569 26.1003 206.164 25.5757 206.164 24.8669C206.164 24.1721 205.569 23.6333 204.803 23.6333C204.052 23.6333 203.456 24.1721 203.456 24.8669ZM212.885 27.0361L211.24 31.7857L209.737 27.0361H207.171L209.921 34.3661C209.581 35.0751 209.057 35.4579 208.277 35.4579C207.908 35.4579 207.625 35.3727 207.483 35.2877V37.1451C207.667 37.2443 208.135 37.3861 208.702 37.3861C210.673 37.3861 211.935 36.0533 212.828 33.6855L215.337 27.0361H212.885ZM223.858 34.2669V32.7923C223.788 32.8349 223.66 32.8633 223.532 32.8633C223.263 32.8633 223.008 32.7499 223.008 32.4095V29.7725C223.008 27.9719 221.675 26.8519 219.378 26.8519C218.173 26.8519 217.039 27.1637 216.372 27.5607V29.4605C217.11 28.8935 218.06 28.6383 218.91 28.6383C219.931 28.6383 220.654 29.0069 220.654 29.7867V30.0985C220.229 29.9851 219.676 29.9143 219.137 29.9143C217.379 29.9143 215.734 30.5947 215.734 32.2677C215.734 33.6005 216.925 34.5789 218.471 34.5789C219.704 34.5789 220.356 34.1393 220.753 33.6005C221.009 34.2527 221.746 34.5789 222.568 34.5789C223.235 34.5789 223.731 34.3661 223.858 34.2669ZM218.145 32.1401C218.145 31.5021 218.882 31.3179 219.492 31.3179C219.903 31.3179 220.314 31.3745 220.654 31.4739V32.2961C220.286 32.6931 219.846 32.9199 219.251 32.9199C218.584 32.9199 218.145 32.6081 218.145 32.1401ZM227.488 24.0871H223.561V25.6467H225.078V34.3945H227.488V24.0871ZM237.03 34.2669V32.7923C236.959 32.8349 236.831 32.8633 236.704 32.8633C236.434 32.8633 236.179 32.7499 236.179 32.4095V29.7725C236.179 27.9719 234.846 26.8519 232.55 26.8519C231.344 26.8519 230.21 27.1637 229.544 27.5607V29.4605C230.281 28.8935 231.231 28.6383 232.082 28.6383C233.103 28.6383 233.826 29.0069 233.826 29.7867V30.0985C233.4 29.9851 232.847 29.9143 232.309 29.9143C230.55 29.9143 228.906 30.5947 228.906 32.2677C228.906 33.6005 230.097 34.5789 231.642 34.5789C232.876 34.5789 233.528 34.1393 233.925 33.6005C234.18 34.2527 234.917 34.5789 235.74 34.5789C236.406 34.5789 236.902 34.3661 237.03 34.2669ZM231.316 32.1401C231.316 31.5021 232.053 31.3179 232.663 31.3179C233.074 31.3179 233.485 31.3745 233.826 31.4739V32.2961C233.457 32.6931 233.017 32.9199 232.422 32.9199C231.756 32.9199 231.316 32.6081 231.316 32.1401ZM238.66 34.3945H241.07V29.6449C241.425 29.3045 242.006 29.0493 242.885 29.0493C243.24 29.0493 243.594 29.1061 243.807 29.1629V27.0645C243.679 27.0077 243.424 26.9653 243.183 26.9653C242.006 26.9653 241.269 27.5749 240.957 28.3263V27.0361H237.172V28.5957H238.66V34.3945ZM82.2488 47.7503C82.2488 50.6709 84.3472 52.0179 86.9276 52.0179C89.522 52.0179 91.6346 50.6709 91.6346 47.7503V41.8521H89.111V47.6793C89.111 49.1113 88.1894 49.9337 86.9276 49.9337C85.6798 49.9337 84.7724 49.1113 84.7724 47.6793V41.8521H80.5616V43.4685H82.2488V47.7503ZM96.5402 51.8335V46.7435C96.8522 46.4317 97.3058 46.2899 97.7878 46.2899C98.667 46.2899 99.149 46.7295 99.149 47.6227V51.8335H101.559V46.8853C101.559 45.2123 100.439 44.2909 98.8512 44.2909C97.7028 44.2909 96.8946 44.8721 96.4268 45.4675V44.4751H92.613V46.0347H94.13V51.8335H96.5402ZM106.266 44.4751H102.339V46.0347H103.856V51.8335H106.266V44.4751ZM103.643 42.3059C103.643 43.0147 104.239 43.5393 104.99 43.5393C105.756 43.5393 106.351 43.0147 106.351 42.3059C106.351 41.6111 105.756 41.0723 104.99 41.0723C104.239 41.0723 103.643 41.6111 103.643 42.3059ZM115.524 44.4751H113.071L111.498 49.0405L109.924 44.4751H107.358L110.208 51.8335H112.674L115.524 44.4751ZM115.935 48.0621C115.935 50.5859 117.935 52.0179 120.586 52.0179C121.919 52.0179 122.883 51.7343 123.478 51.3089V49.5083C122.798 49.9053 121.961 50.1747 120.784 50.1747C119.551 50.1747 118.388 49.5367 118.388 48.7427H123.506V47.7927C123.506 45.6519 121.904 44.2909 119.806 44.2909C117.708 44.2909 115.935 45.7937 115.935 48.0621ZM118.388 47.3107C118.431 46.5309 119.012 45.9921 119.82 45.9921C120.614 45.9921 121.153 46.5309 121.181 47.3107H118.388ZM125.576 51.8335H127.987V47.0839C128.341 46.7435 128.922 46.4883 129.801 46.4883C130.156 46.4883 130.51 46.5451 130.723 46.6019V44.5035C130.595 44.4467 130.34 44.4043 130.099 44.4043C128.922 44.4043 128.185 45.0139 127.873 45.7653V44.4751H124.088V46.0347H125.576V51.8335ZM131.829 49.4091V51.2805C132.41 51.6917 133.729 52.0179 135.118 52.0179C137.046 52.0179 138.535 51.1245 138.535 49.5933C138.535 48.1047 137.231 47.5517 135.855 47.2823L135.132 47.1405C134.409 46.9989 134.083 46.8853 134.083 46.5877C134.083 46.2473 134.523 46.0773 135.26 46.0773C136.196 46.0773 137.216 46.3607 138.067 46.8571V45.0139C137.486 44.6027 136.465 44.2909 135.161 44.2909C133.119 44.2909 131.673 45.2691 131.673 46.6727C131.673 48.0621 132.864 48.7285 134.438 49.0121L135.146 49.1397C135.855 49.2673 136.125 49.3807 136.125 49.6785C136.125 50.0613 135.586 50.2313 134.792 50.2313C133.771 50.2313 132.509 49.8061 131.829 49.4091ZM142.888 44.4751H138.96V46.0347H140.477V51.8335H142.888V44.4751ZM140.265 42.3059C140.265 43.0147 140.86 43.5393 141.612 43.5393C142.377 43.5393 142.973 43.0147 142.973 42.3059C142.973 41.6111 142.377 41.0723 141.612 41.0723C140.86 41.0723 140.265 41.6111 140.265 42.3059ZM147.765 49.0829V46.2757H149.608V44.4751H147.765V42.5895H145.355V44.4751H144.164V46.2757H145.355V49.3523C145.355 51.1387 146.475 52.0179 148.219 52.0179C148.715 52.0179 149.339 51.8903 149.608 51.7343V49.9621C149.452 50.0471 149.154 50.1037 148.828 50.1037C148.176 50.1037 147.765 49.7777 147.765 49.0829ZM150.473 48.0621C150.473 50.5859 152.472 52.0179 155.123 52.0179C156.456 52.0179 157.42 51.7343 158.016 51.3089V49.5083C157.335 49.9053 156.498 50.1747 155.322 50.1747C154.088 50.1747 152.926 49.5367 152.926 48.7427H158.044V47.7927C158.044 45.6519 156.442 44.2909 154.343 44.2909C152.245 44.2909 150.473 45.7937 150.473 48.0621ZM152.926 47.3107C152.968 46.5309 153.549 45.9921 154.358 45.9921C155.152 45.9921 155.69 46.5309 155.719 47.3107H152.926ZM162.51 49.0829V46.2757H164.353V44.4751H162.51V42.5895H160.1V44.4751H158.909V46.2757H160.1V49.3523C160.1 51.1387 161.22 52.0179 162.964 52.0179C163.46 52.0179 164.084 51.8903 164.353 51.7343V49.9621C164.197 50.0471 163.899 50.1037 163.573 50.1037C162.921 50.1037 162.51 49.7777 162.51 49.0829ZM168.947 44.4751H165.019V46.0347H166.536V51.8335H168.947V44.4751ZM166.324 42.3059C166.324 43.0147 166.919 43.5393 167.671 43.5393C168.436 43.5393 169.032 43.0147 169.032 42.3059C169.032 41.6111 168.436 41.0723 167.671 41.0723C166.919 41.0723 166.324 41.6111 166.324 42.3059Z" fill="white"/>
</svg>
