<svg width="92" height="30" viewBox="0 0 92 30" fill="none" xmlns="http://www.w3.org/2000/svg">
<path d="M42.5412 5.24C42.7625 5.24 42.9572 5.21067 43.1252 5.152C43.2959 5.09333 43.4385 5.012 43.5532 4.908C43.6705 4.80133 43.7585 4.67467 43.8172 4.528C43.8759 4.38133 43.9052 4.22 43.9052 4.044C43.9052 3.67867 43.7919 3.39333 43.5652 3.188C43.3412 2.98267 42.9999 2.88 42.5412 2.88H41.6212V5.24H42.5412ZM42.5412 2.268C42.9039 2.268 43.2185 2.31067 43.4852 2.396C43.7545 2.47867 43.9772 2.59733 44.1532 2.752C44.3292 2.90667 44.4599 3.09333 44.5452 3.312C44.6332 3.53067 44.6772 3.77467 44.6772 4.044C44.6772 4.31067 44.6305 4.55467 44.5372 4.776C44.4439 4.99733 44.3065 5.188 44.1252 5.348C43.9465 5.508 43.7239 5.63333 43.4572 5.724C43.1932 5.812 42.8879 5.856 42.5412 5.856H41.6212V8H40.8492V2.268H42.5412ZM50.9499 5.136C50.9499 5.56533 50.8819 5.96 50.7459 6.32C50.6099 6.67733 50.4179 6.98533 50.1699 7.244C49.9219 7.50267 49.6232 7.704 49.2739 7.848C48.9272 7.98933 48.5432 8.06 48.1219 8.06C47.7005 8.06 47.3165 7.98933 46.9699 7.848C46.6232 7.704 46.3259 7.50267 46.0779 7.244C45.8299 6.98533 45.6379 6.67733 45.5019 6.32C45.3659 5.96 45.2979 5.56533 45.2979 5.136C45.2979 4.70667 45.3659 4.31333 45.5019 3.956C45.6379 3.596 45.8299 3.28667 46.0779 3.028C46.3259 2.76667 46.6232 2.564 46.9699 2.42C47.3165 2.276 47.7005 2.204 48.1219 2.204C48.5432 2.204 48.9272 2.276 49.2739 2.42C49.6232 2.564 49.9219 2.76667 50.1699 3.028C50.4179 3.28667 50.6099 3.596 50.7459 3.956C50.8819 4.31333 50.9499 4.70667 50.9499 5.136ZM50.1539 5.136C50.1539 4.784 50.1059 4.468 50.0099 4.188C49.9139 3.908 49.7779 3.672 49.6019 3.48C49.4259 3.28533 49.2125 3.136 48.9619 3.032C48.7112 2.928 48.4312 2.876 48.1219 2.876C47.8152 2.876 47.5365 2.928 47.2859 3.032C47.0352 3.136 46.8205 3.28533 46.6419 3.48C46.4659 3.672 46.3299 3.908 46.2339 4.188C46.1379 4.468 46.0899 4.784 46.0899 5.136C46.0899 5.488 46.1379 5.804 46.2339 6.084C46.3299 6.36133 46.4659 6.59733 46.6419 6.792C46.8205 6.984 47.0352 7.132 47.2859 7.236C47.5365 7.33733 47.8152 7.388 48.1219 7.388C48.4312 7.388 48.7112 7.33733 48.9619 7.236C49.2125 7.132 49.4259 6.984 49.6019 6.792C49.7779 6.59733 49.9139 6.36133 50.0099 6.084C50.1059 5.804 50.1539 5.488 50.1539 5.136ZM59.4022 2.268L57.6142 8H56.9182L55.4662 3.628C55.4529 3.58533 55.4395 3.54 55.4262 3.492C55.4155 3.444 55.4035 3.39333 55.3902 3.34C55.3769 3.39333 55.3635 3.444 55.3502 3.492C55.3369 3.54 55.3235 3.58533 55.3102 3.628L53.8502 8H53.1542L51.3662 2.268H52.0102C52.0795 2.268 52.1369 2.28533 52.1822 2.32C52.2302 2.35467 52.2609 2.39867 52.2742 2.452L53.4582 6.436C53.4769 6.508 53.4942 6.58533 53.5102 6.668C53.5289 6.75067 53.5462 6.83867 53.5622 6.932C53.5809 6.83867 53.5995 6.75067 53.6182 6.668C53.6395 6.58267 53.6622 6.50533 53.6862 6.436L55.0342 2.452C55.0502 2.40667 55.0809 2.36533 55.1262 2.328C55.1742 2.288 55.2315 2.268 55.2982 2.268H55.5222C55.5915 2.268 55.6475 2.28533 55.6902 2.32C55.7329 2.35467 55.7649 2.39867 55.7862 2.452L57.1302 6.436C57.1542 6.50533 57.1755 6.58 57.1942 6.66C57.2155 6.74 57.2355 6.824 57.2542 6.912C57.2675 6.824 57.2822 6.74 57.2982 6.66C57.3142 6.58 57.3315 6.50533 57.3502 6.436L58.5382 2.452C58.5515 2.404 58.5809 2.36133 58.6262 2.324C58.6742 2.28667 58.7315 2.268 58.7982 2.268H59.4022ZM63.7914 7.368L63.7874 8H60.2554V2.268H63.7874V2.9H61.0314V4.804H63.2634V5.412H61.0314V7.368H63.7914ZM66.4606 5.044C66.6846 5.044 66.882 5.01733 67.0526 4.964C67.226 4.908 67.37 4.83067 67.4846 4.732C67.602 4.63067 67.69 4.51067 67.7486 4.372C67.8073 4.23333 67.8366 4.08 67.8366 3.912C67.8366 3.57067 67.7246 3.31333 67.5006 3.14C67.2766 2.96667 66.9406 2.88 66.4926 2.88H65.6446V5.044H66.4606ZM69.1086 8H68.4206C68.2793 8 68.1753 7.94533 68.1086 7.836L66.6206 5.788C66.5753 5.724 66.526 5.67867 66.4726 5.652C66.422 5.62267 66.342 5.608 66.2326 5.608H65.6446V8H64.8726V2.268H66.4926C66.8553 2.268 67.1686 2.30533 67.4326 2.38C67.6966 2.452 67.914 2.55733 68.0846 2.696C68.258 2.83467 68.386 3.00267 68.4686 3.2C68.5513 3.39467 68.5926 3.61333 68.5926 3.856C68.5926 4.05867 68.5606 4.248 68.4966 4.424C68.4326 4.6 68.3393 4.75867 68.2166 4.9C68.0966 5.03867 67.9486 5.15733 67.7726 5.256C67.5993 5.35467 67.402 5.42933 67.1806 5.48C67.2793 5.536 67.3646 5.61733 67.4366 5.724L69.1086 8ZM73.4243 7.368L73.4203 8H69.8883V2.268H73.4203V2.9H70.6643V4.804H72.8963V5.412H70.6643V7.368H73.4243ZM79.4734 5.136C79.4734 5.56533 79.4054 5.956 79.2694 6.308C79.1334 6.66 78.9414 6.96133 78.6934 7.212C78.4454 7.46267 78.1468 7.65733 77.7974 7.796C77.4508 7.932 77.0668 8 76.6454 8H74.5054V2.268H76.6454C77.0668 2.268 77.4508 2.33733 77.7974 2.476C78.1468 2.612 78.4454 2.80667 78.6934 3.06C78.9414 3.31067 79.1334 3.612 79.2694 3.964C79.4054 4.316 79.4734 4.70667 79.4734 5.136ZM78.6774 5.136C78.6774 4.784 78.6294 4.46933 78.5334 4.192C78.4374 3.91467 78.3014 3.68 78.1254 3.488C77.9494 3.296 77.7361 3.14933 77.4854 3.048C77.2348 2.94667 76.9548 2.896 76.6454 2.896H75.2814V7.372H76.6454C76.9548 7.372 77.2348 7.32133 77.4854 7.22C77.7361 7.11867 77.9494 6.97333 78.1254 6.784C78.3014 6.592 78.4374 6.35733 78.5334 6.08C78.6294 5.80267 78.6774 5.488 78.6774 5.136ZM84.6503 7.384C84.8716 7.384 85.0623 7.35867 85.2223 7.308C85.3823 7.25733 85.5129 7.18667 85.6143 7.096C85.7183 7.00267 85.7943 6.89333 85.8423 6.768C85.8903 6.64 85.9143 6.5 85.9143 6.348C85.9143 6.052 85.8089 5.81867 85.5983 5.648C85.3876 5.47467 85.0716 5.388 84.6503 5.388H83.4103V7.384H84.6503ZM83.4103 2.88V4.836H84.4343C84.6529 4.836 84.8423 4.812 85.0023 4.764C85.1649 4.716 85.2983 4.64933 85.4023 4.564C85.5089 4.47867 85.5876 4.376 85.6383 4.256C85.6889 4.13333 85.7143 4 85.7143 3.856C85.7143 3.51733 85.6129 3.27067 85.4103 3.116C85.2076 2.95867 84.8929 2.88 84.4663 2.88H83.4103ZM84.4663 2.268C84.8183 2.268 85.1209 2.30267 85.3743 2.372C85.6303 2.44133 85.8396 2.54 86.0023 2.668C86.1676 2.796 86.2889 2.95333 86.3663 3.14C86.4436 3.324 86.4823 3.532 86.4823 3.764C86.4823 3.90533 86.4596 4.04133 86.4143 4.172C86.3716 4.3 86.3063 4.42 86.2183 4.532C86.1303 4.644 86.0183 4.74533 85.8823 4.836C85.7489 4.924 85.5916 4.996 85.4103 5.052C85.8316 5.132 86.1476 5.28267 86.3583 5.504C86.5716 5.72267 86.6783 6.01067 86.6783 6.368C86.6783 6.61067 86.6329 6.832 86.5423 7.032C86.4543 7.232 86.3236 7.404 86.1503 7.548C85.9796 7.692 85.7689 7.804 85.5183 7.884C85.2676 7.96133 84.9823 8 84.6623 8H82.6383V2.268H84.4663ZM89.7746 5.716V8H88.9986V5.716L86.8986 2.268H87.5786C87.648 2.268 87.7026 2.28533 87.7426 2.32C87.7826 2.352 87.8173 2.39467 87.8466 2.448L89.1586 4.676C89.2066 4.76933 89.2506 4.85733 89.2906 4.94C89.3306 5.02 89.3653 5.10133 89.3946 5.184C89.424 5.10133 89.4573 5.02 89.4946 4.94C89.532 4.85733 89.5733 4.76933 89.6186 4.676L90.9266 2.448C90.9506 2.40267 90.984 2.36133 91.0266 2.324C91.0693 2.28667 91.124 2.268 91.1906 2.268H91.8746L89.7746 5.716Z" fill="white"/>
<g clip-path="url(#clip0_230_11020)">
<path d="M10 10.625C8.1458 10.625 6.33324 11.1748 4.79153 12.205C3.24982 13.2351 2.04821 14.6993 1.33863 16.4123C0.629062 18.1254 0.443406 20.0104 0.805142 21.829C1.16688 23.6475 2.05976 25.318 3.37088 26.6291C4.682 27.9402 6.35246 28.8331 8.17103 29.1949C9.9896 29.5566 11.8746 29.3709 13.5877 28.6614C15.3007 27.9518 16.7649 26.7502 17.795 25.2085C18.8252 23.6668 19.375 21.8542 19.375 20C19.3719 17.5145 18.3832 15.1317 16.6257 13.3743C14.8683 11.6168 12.4855 10.6281 10 10.625ZM14.7156 22.5C14.7167 22.6338 14.6807 22.7653 14.6118 22.88C14.5429 22.9947 14.4436 23.0881 14.325 23.15L10.5938 25.1031C10.4889 25.1571 10.3726 25.1852 10.2547 25.1852C10.1368 25.1852 10.0205 25.1571 9.91563 25.1031L6.1875 23.15C6.06849 23.0883 5.96879 22.995 5.89933 22.8803C5.82987 22.7656 5.79334 22.6341 5.79375 22.5V20.0563L9.70625 22.1094C9.87597 22.1964 10.064 22.2418 10.2547 22.2418C10.4454 22.2418 10.6334 22.1964 10.8031 22.1094L14.4781 20.1813L14.7156 20.0563V22.5ZM15.8563 18.9531L14.7156 19.5531C14.5781 19.6219 10.8406 21.5844 10.5938 21.7125C10.4893 21.7679 10.3729 21.7969 10.2547 21.7969C10.1365 21.7969 10.0201 21.7679 9.91563 21.7125C8.85313 21.1563 5.63438 19.4656 4.70625 18.9813V21.3219C4.80951 21.3645 4.89907 21.4346 4.96516 21.5246C5.03125 21.6147 5.07132 21.7212 5.08099 21.8324C5.09067 21.9437 5.06958 22.0555 5.02002 22.1556C4.97047 22.2557 4.89436 22.3402 4.8 22.4L5.17813 23.5406C5.21432 23.6506 5.2239 23.7675 5.20607 23.8819C5.18824 23.9962 5.14351 24.1047 5.07556 24.1984C5.00762 24.2921 4.9184 24.3683 4.81524 24.4207C4.71209 24.4732 4.59795 24.5004 4.48221 24.5002C4.36648 24.4999 4.25247 24.4722 4.14955 24.4192C4.04663 24.3663 3.95776 24.2897 3.89023 24.1957C3.82271 24.1017 3.77847 23.993 3.76115 23.8786C3.74383 23.7642 3.75394 23.6473 3.79063 23.5375L4.16875 22.4C4.0744 22.3402 3.99829 22.2557 3.94873 22.1556C3.89918 22.0555 3.87809 21.9437 3.88776 21.8324C3.89744 21.7212 3.93751 21.6147 4.0036 21.5246C4.06969 21.4346 4.15925 21.3645 4.2625 21.3219V18.3063C4.26148 18.1724 4.29741 18.041 4.36633 17.9263C4.43526 17.8116 4.5345 17.7181 4.65313 17.6563L9.91563 14.8969C10.0205 14.843 10.1368 14.8149 10.2547 14.8149C10.3726 14.8149 10.4889 14.843 10.5938 14.8969L15.8563 17.6563C15.9749 17.718 16.0744 17.8111 16.1438 17.9254C16.2132 18.0398 16.2499 18.1709 16.2499 18.3047C16.2499 18.4384 16.2132 18.5696 16.1438 18.684C16.0744 18.7983 15.9749 18.8914 15.8563 18.9531Z" fill="white"/>
</g>
<path d="M33.536 25.236L33.528 26.5H26.464V15.036H33.528V16.3H28.016V20.108H32.48V21.324H28.016V25.236H33.536ZM46.4344 20.772C46.4344 21.6307 46.2984 22.412 46.0264 23.116C45.7544 23.82 45.3704 24.4227 44.8744 24.924C44.3784 25.4253 43.781 25.8147 43.0824 26.092C42.389 26.364 41.621 26.5 40.7784 26.5H36.4984V15.036H40.7784C41.621 15.036 42.389 15.1747 43.0824 15.452C43.781 15.724 44.3784 16.1133 44.8744 16.62C45.3704 17.1213 45.7544 17.724 46.0264 18.428C46.2984 19.132 46.4344 19.9133 46.4344 20.772ZM44.8424 20.772C44.8424 20.068 44.7464 19.4387 44.5544 18.884C44.3624 18.3293 44.0904 17.86 43.7384 17.476C43.3864 17.092 42.9597 16.7987 42.4584 16.596C41.957 16.3933 41.397 16.292 40.7784 16.292H38.0504V25.244H40.7784C41.397 25.244 41.957 25.1427 42.4584 24.94C42.9597 24.7373 43.3864 24.4467 43.7384 24.068C44.0904 23.684 44.3624 23.2147 44.5544 22.66C44.7464 22.1053 44.8424 21.476 44.8424 20.772ZM53.8943 25.268C54.3689 25.268 54.7929 25.188 55.1663 25.028C55.5396 24.868 55.8543 24.644 56.1103 24.356C56.3716 24.068 56.5689 23.724 56.7023 23.324C56.8409 22.924 56.9103 22.484 56.9103 22.004V15.036H58.4543V22.004C58.4543 22.6653 58.3476 23.2787 58.1343 23.844C57.9263 24.4093 57.6249 24.9 57.2303 25.316C56.8409 25.7267 56.3636 26.0493 55.7983 26.284C55.2329 26.5187 54.5983 26.636 53.8943 26.636C53.1903 26.636 52.5556 26.5187 51.9903 26.284C51.4249 26.0493 50.9449 25.7267 50.5503 25.316C50.1556 24.9 49.8516 24.4093 49.6383 23.844C49.4303 23.2787 49.3263 22.6653 49.3263 22.004V15.036H50.8703V21.996C50.8703 22.476 50.9369 22.916 51.0703 23.316C51.2089 23.716 51.4063 24.06 51.6623 24.348C51.9236 24.636 52.2409 24.8627 52.6143 25.028C52.9929 25.188 53.4196 25.268 53.8943 25.268ZM68.5399 25.196V26.5H62.0359V15.036H63.5799V25.196H68.5399ZM77.1426 22.244L75.3426 17.58C75.2893 17.4413 75.2333 17.2813 75.1746 17.1C75.116 16.9133 75.06 16.716 75.0066 16.508C74.8946 16.94 74.78 17.3 74.6626 17.588L72.8626 22.244H77.1426ZM80.3746 26.5H79.1746C79.036 26.5 78.924 26.4653 78.8386 26.396C78.7533 26.3267 78.6893 26.2387 78.6466 26.132L77.5746 23.364H72.4306L71.3586 26.132C71.3266 26.228 71.2653 26.3133 71.1746 26.388C71.084 26.4627 70.972 26.5 70.8386 26.5H69.6386L74.2226 15.036H75.7906L80.3746 26.5ZM86.7068 25.268C87.1494 25.268 87.5308 25.2173 87.8508 25.116C88.1708 25.0147 88.4321 24.8733 88.6348 24.692C88.8428 24.5053 88.9948 24.2867 89.0908 24.036C89.1868 23.78 89.2348 23.5 89.2348 23.196C89.2348 22.604 89.0241 22.1373 88.6028 21.796C88.1814 21.4493 87.5494 21.276 86.7068 21.276H84.2268V25.268H86.7068ZM84.2268 16.26V20.172H86.2748C86.7121 20.172 87.0908 20.124 87.4108 20.028C87.7361 19.932 88.0028 19.7987 88.2108 19.628C88.4241 19.4573 88.5814 19.252 88.6828 19.012C88.7841 18.7667 88.8348 18.5 88.8348 18.212C88.8348 17.5347 88.6321 17.0413 88.2268 16.732C87.8214 16.4173 87.1921 16.26 86.3388 16.26H84.2268ZM86.3388 15.036C87.0428 15.036 87.6481 15.1053 88.1548 15.244C88.6668 15.3827 89.0854 15.58 89.4108 15.836C89.7414 16.092 89.9841 16.4067 90.1388 16.78C90.2934 17.148 90.3708 17.564 90.3708 18.028C90.3708 18.3107 90.3254 18.5827 90.2348 18.844C90.1494 19.1 90.0188 19.34 89.8428 19.564C89.6668 19.788 89.4428 19.9907 89.1708 20.172C88.9041 20.348 88.5894 20.492 88.2268 20.604C89.0694 20.764 89.7014 21.0653 90.1228 21.508C90.5494 21.9453 90.7628 22.5213 90.7628 23.236C90.7628 23.7213 90.6721 24.164 90.4908 24.564C90.3148 24.964 90.0534 25.308 89.7068 25.596C89.3654 25.884 88.9441 26.108 88.4428 26.268C87.9414 26.4227 87.3708 26.5 86.7308 26.5H82.6828V15.036H86.3388Z" fill="white"/>
<defs>
<clipPath id="clip0_230_11020">
<rect width="20" height="20" fill="white" transform="translate(0 10)"/>
</clipPath>
</defs>
</svg>
