<svg width="199" height="48" viewBox="0 0 199 48" fill="none" xmlns="http://www.w3.org/2000/svg">
<path d="M36.5914 13.5757V35.8627L47.7344 47.0057V2.43262H3.16113L14.304 13.5757H36.5914Z" fill="#426DFF"/>
<path d="M36.5899 35.862L14.304 13.5757L14.3033 35.862H36.5899Z" fill="#426DFF"/>
<path d="M64.4492 6.87204H65.799V13.564H67.8179V10.91H69.3038L70.8916 13.564H73.1489L71.266 10.5016C72.1054 10.0365 72.6611 9.23124 72.6611 8.18772C72.6611 6.54308 71.334 5.57892 69.5307 5.57892H64.4492V6.87204ZM67.8179 9.34468V7.17828H69.3038C70.0297 7.17828 70.6081 7.56388 70.6081 8.26708C70.6081 8.95908 70.0297 9.34468 69.3038 9.34468H67.8179ZM80.1923 13.462V12.2823C80.1355 12.3164 80.0339 12.3391 79.9316 12.3391C79.7161 12.3391 79.5119 12.2484 79.5119 11.976V9.86644C79.5119 8.42596 78.4457 7.52996 76.6083 7.52996C75.6441 7.52996 74.7367 7.7794 74.2036 8.097V9.61684C74.7934 9.16324 75.5534 8.95908 76.234 8.95908C77.0507 8.95908 77.6291 9.25396 77.6291 9.8778V10.1272C77.2887 10.0365 76.8465 9.97988 76.4155 9.97988C75.0089 9.97988 73.6932 10.5242 73.6932 11.8626C73.6932 12.9288 74.646 13.7116 75.8823 13.7116C76.8691 13.7116 77.3908 13.3599 77.7084 12.9288C77.9126 13.4506 78.5025 13.7116 79.1603 13.7116C79.6934 13.7116 80.0907 13.5413 80.1923 13.462ZM75.6214 11.7605C75.6214 11.2501 76.2113 11.1028 76.699 11.1028C77.0279 11.1028 77.3569 11.148 77.6291 11.2276V11.8853C77.3342 12.2029 76.9825 12.3844 76.5062 12.3844C75.9731 12.3844 75.6214 12.1349 75.6214 11.7605ZM87.2019 15.7304V7.67732H85.3643V8.65284C85.1491 8.17636 84.5363 7.52996 83.4931 7.52996C82.0075 7.52996 80.8387 8.68676 80.8387 10.6263C80.8387 12.5546 82.0075 13.7116 83.4931 13.7116C84.4115 13.7116 85.0019 13.2124 85.2739 12.7588V15.7304H87.2019ZM82.7787 10.6263C82.7787 9.67364 83.2659 9.07252 84.0379 9.07252C84.5027 9.07252 84.9219 9.21988 85.2739 9.58292V11.6698C84.9219 12.0215 84.5027 12.169 84.0379 12.169C83.2659 12.169 82.7787 11.5677 82.7787 10.6263ZM94.8355 13.462V12.2823C94.7787 12.3164 94.6771 12.3391 94.5747 12.3391C94.3595 12.3391 94.1547 12.2484 94.1547 11.976V9.86644C94.1547 8.42596 93.0891 7.52996 91.2515 7.52996C90.2875 7.52996 89.3795 7.7794 88.8467 8.097V9.61684C89.4363 9.16324 90.1963 8.95908 90.8771 8.95908C91.6939 8.95908 92.2723 9.25396 92.2723 9.8778V10.1272C91.9315 10.0365 91.4899 9.97988 91.0587 9.97988C89.6523 9.97988 88.3363 10.5242 88.3363 11.8626C88.3363 12.9288 89.2891 13.7116 90.5251 13.7116C91.5123 13.7116 92.0339 13.3599 92.3515 12.9288C92.5555 13.4506 93.1459 13.7116 93.8035 13.7116C94.3363 13.7116 94.7331 13.5413 94.8355 13.462ZM90.2643 11.7605C90.2643 11.2501 90.8547 11.1028 91.3419 11.1028C91.6707 11.1028 92.0003 11.148 92.2723 11.2276V11.8853C91.9771 12.2029 91.6259 12.3844 91.1491 12.3844C90.6163 12.3844 90.2643 12.1349 90.2643 11.7605ZM98.0907 13.564V9.46948C98.3291 9.2426 98.6691 9.12916 99.0435 9.12916C99.6219 9.12916 99.9851 9.48084 99.9851 10.082V13.564H101.913V9.48084C102.151 9.2426 102.503 9.12916 102.866 9.12916C103.455 9.12916 103.819 9.48084 103.819 10.082V13.564H105.747V9.58292C105.747 8.26708 104.839 7.52996 103.569 7.52996C102.548 7.52996 101.935 8.05156 101.63 8.45988C101.323 7.92692 100.733 7.52996 99.8715 7.52996C98.9867 7.52996 98.3627 7.99492 98.0003 8.47124V7.67732H94.9491V8.925H96.1627V13.564H98.0907ZM109.172 5.31812H106.031V6.5658H107.244V13.564H109.172V5.31812ZM113.108 7.67732H109.966V8.925H111.179V13.564H113.108V7.67732ZM111.01 5.94196C111.01 6.509 111.486 6.92868 112.087 6.92868C112.699 6.92868 113.176 6.509 113.176 5.94196C113.176 5.38612 112.699 4.95508 112.087 4.95508C111.486 4.95508 111.01 5.38612 111.01 5.94196ZM121.32 5.57892H116.579V6.87204H117.94V12.2711H116.579V13.564H121.32V12.2711H119.959V6.87204H121.32V5.57892ZM128.25 15.7304V7.67732H126.413V8.65284C126.197 8.17636 125.585 7.52996 124.541 7.52996C123.055 7.52996 121.887 8.68676 121.887 10.6263C121.887 12.5546 123.055 13.7116 124.541 13.7116C125.46 13.7116 126.05 13.2124 126.322 12.7588V15.7304H128.25ZM123.827 10.6263C123.827 9.67364 124.315 9.07252 125.086 9.07252C125.551 9.07252 125.971 9.21988 126.322 9.58292V11.6698C125.971 12.0215 125.551 12.169 125.086 12.169C124.315 12.169 123.827 11.5677 123.827 10.6263ZM132.152 11.3636V9.1178H133.627V7.67732H132.152V6.16884H130.223V7.67732H129.271V9.1178H130.223V11.5791C130.223 13.0082 131.119 13.7116 132.515 13.7116C132.912 13.7116 133.411 13.6095 133.627 13.4847V12.0669C133.502 12.1349 133.263 12.1802 133.003 12.1802C132.481 12.1802 132.152 11.9194 132.152 11.3636ZM137.301 7.67732H134.159V8.925H135.373V13.564H137.301V7.67732ZM135.203 5.94196C135.203 6.509 135.679 6.92868 136.28 6.92868C136.893 6.92868 137.369 6.509 137.369 5.94196C137.369 5.38612 136.893 4.95508 136.28 4.95508C135.679 4.95508 135.203 5.38612 135.203 5.94196ZM138.639 11.6245V13.1216C139.105 13.4506 140.159 13.7116 141.271 13.7116C142.814 13.7116 144.005 12.9968 144.005 11.7719C144.005 10.581 142.961 10.1386 141.861 9.92308L141.283 9.80964C140.704 9.69636 140.443 9.60548 140.443 9.3674C140.443 9.09508 140.795 8.95908 141.385 8.95908C142.133 8.95908 142.95 9.1858 143.631 9.58292V8.10836C143.165 7.7794 142.349 7.52996 141.305 7.52996C139.672 7.52996 138.515 8.31252 138.515 9.4354C138.515 10.5469 139.467 11.08 140.727 11.3069L141.294 11.409C141.861 11.5111 142.076 11.6018 142.076 11.84C142.076 12.1463 141.646 12.2823 141.011 12.2823C140.194 12.2823 139.184 11.9421 138.639 11.6245ZM148.111 7.52996C146.239 7.52996 144.81 8.75492 144.81 10.6151C144.81 12.4864 146.239 13.7116 148.111 13.7116C149.948 13.7116 151.388 12.4864 151.388 10.6151C151.388 8.75492 149.948 7.52996 148.111 7.52996ZM146.75 10.6151C146.75 9.71892 147.317 9.07252 148.111 9.07252C148.893 9.07252 149.46 9.71892 149.46 10.6151C149.46 11.5224 148.893 12.169 148.111 12.169C147.317 12.169 146.75 11.5224 146.75 10.6151ZM154.905 7.52996C153.419 7.52996 152.251 8.68676 152.251 10.6263C152.251 12.5546 153.419 13.7116 154.905 13.7116C155.948 13.7116 156.561 13.065 156.776 12.5885V13.564H158.614V5.31812H156.686V8.4826C156.413 8.029 155.823 7.52996 154.905 7.52996ZM154.19 10.6263C154.19 9.67364 154.678 9.07252 155.449 9.07252C155.914 9.07252 156.334 9.21988 156.686 9.58292V11.6698C156.334 12.0215 155.914 12.169 155.449 12.169C154.678 12.169 154.19 11.5677 154.19 10.6263ZM162.55 7.67732H159.407V8.925H160.621V13.564H162.55V7.67732ZM160.451 5.94196C160.451 6.509 160.927 6.92868 161.529 6.92868C162.141 6.92868 162.618 6.509 162.618 5.94196C162.618 5.38612 162.141 4.95508 161.529 4.95508C160.927 4.95508 160.451 5.38612 160.451 5.94196ZM167.994 7.67732L166.678 11.477L165.476 7.67732H163.423L165.623 13.5413C165.351 14.1085 164.931 14.4148 164.307 14.4148C164.013 14.4148 163.786 14.3466 163.672 14.2786V15.7645C163.82 15.8439 164.194 15.9573 164.648 15.9573C166.224 15.9573 167.234 14.8911 167.948 12.9968L169.956 7.67732H167.994ZM173.586 7.52996C171.714 7.52996 170.285 8.75492 170.285 10.6151C170.285 12.4864 171.714 13.7116 173.586 13.7116C175.423 13.7116 176.863 12.4864 176.863 10.6151C176.863 8.75492 175.423 7.52996 173.586 7.52996ZM172.224 10.6151C172.224 9.71892 172.791 9.07252 173.586 9.07252C174.368 9.07252 174.935 9.71892 174.935 10.6151C174.935 11.5224 174.368 12.169 173.586 12.169C172.791 12.169 172.224 11.5224 172.224 10.6151ZM180.323 11.3636V9.1178H181.798V7.67732H180.323V6.16884H178.395V7.67732H177.442V9.1178H178.395V11.5791C178.395 13.0082 179.291 13.7116 180.686 13.7116C181.083 13.7116 181.582 13.6095 181.798 13.4847V12.0669C181.673 12.1349 181.435 12.1802 181.174 12.1802C180.652 12.1802 180.323 11.9194 180.323 11.3636ZM71.0051 21.6285H69.0428L67.7839 25.2808L66.5249 21.6285H64.4719L66.7518 27.5152H68.7252L71.0051 21.6285ZM77.8219 27.4132V26.2335C77.7652 26.2676 77.6631 26.2903 77.5611 26.2903C77.3455 26.2903 77.1414 26.1996 77.1414 25.9272V23.8176C77.1414 22.3772 76.0751 21.4812 74.2377 21.4812C73.2735 21.4812 72.3662 21.7306 71.8331 22.0482V23.568C72.4228 23.1144 73.1828 22.9103 73.8635 22.9103C74.6801 22.9103 75.2585 23.2052 75.2585 23.829V24.0784C74.9182 23.9877 74.4759 23.9311 74.0449 23.9311C72.6383 23.9311 71.3227 24.4754 71.3227 25.8138C71.3227 26.88 72.2755 27.6628 73.5118 27.6628C74.4985 27.6628 75.0203 27.3111 75.3379 26.88C75.542 27.4018 76.1319 27.6628 76.7897 27.6628C77.3228 27.6628 77.7198 27.4925 77.8219 27.4132ZM73.2508 25.7117C73.2508 25.2013 73.8407 25.054 74.3284 25.054C74.6574 25.054 74.9863 25.0992 75.2585 25.1788V25.8365C74.9636 26.1541 74.6119 26.3356 74.1356 26.3356C73.6025 26.3356 73.2508 26.0861 73.2508 25.7117ZM80.8051 27.5152H82.8467L83.4251 25.9613H86.4195L86.9867 27.5152H89.0851L85.9883 19.5301H82.0299V20.7778H83.4139L80.8051 27.5152ZM83.9355 24.4188L84.9227 21.6626L85.8979 24.4188H83.9355ZM92.6355 29.9085C94.4387 29.9085 95.8907 28.9557 95.8907 27.1296V21.6285H94.0531V22.4452C93.7923 22.0028 93.1795 21.4812 92.2379 21.4812C90.7411 21.4812 89.5731 22.5813 89.5731 24.4415C89.5731 26.3016 90.7411 27.3904 92.2379 27.3904C93.0891 27.3904 93.6787 26.9594 93.9739 26.5511V27.0956C93.9739 28.1391 93.1115 28.468 92.2947 28.468C91.5011 28.468 90.7867 28.2412 90.1395 27.7988V29.33C90.7411 29.6816 91.5347 29.9085 92.6355 29.9085ZM91.5123 24.4415C91.5123 23.5341 92.0003 22.9669 92.7715 22.9669C93.2251 22.9669 93.6219 23.1144 93.9739 23.432V25.4623C93.6219 25.7799 93.2251 25.9272 92.7715 25.9272C92.0003 25.9272 91.5123 25.3488 91.5123 24.4415ZM97.8755 27.5152H99.8035V23.7156C100.087 23.4432 100.552 23.2391 101.255 23.2391C101.539 23.2391 101.823 23.2845 101.992 23.33V21.6512C101.891 21.6058 101.687 21.5719 101.494 21.5719C100.552 21.5719 99.9627 22.0596 99.7131 22.6607V21.6285H96.6843V22.8762H97.8755V27.5152ZM105.86 21.4812C103.989 21.4812 102.559 22.7061 102.559 24.5663C102.559 26.4376 103.989 27.6628 105.86 27.6628C107.698 27.6628 109.139 26.4376 109.139 24.5663C109.139 22.7061 107.698 21.4812 105.86 21.4812ZM104.499 24.5663C104.499 23.6701 105.067 23.0237 105.86 23.0237C106.643 23.0237 107.21 23.6701 107.21 24.5663C107.21 25.4736 106.643 26.1202 105.86 26.1202C105.067 26.1202 104.499 25.4736 104.499 24.5663ZM112.598 25.3148V23.069H114.072V21.6285H112.598V20.12H110.67V21.6285H109.717V23.069H110.67V25.5303C110.67 26.9594 111.566 27.6628 112.961 27.6628C113.358 27.6628 113.857 27.5607 114.072 27.4359V26.0181C113.947 26.0861 113.709 26.1314 113.448 26.1314C112.927 26.1314 112.598 25.8706 112.598 25.3148ZM114.764 24.4981C114.764 26.5172 116.363 27.6628 118.484 27.6628C119.551 27.6628 120.322 27.4359 120.799 27.0956V25.6551C120.254 25.9727 119.584 26.1882 118.643 26.1882C117.656 26.1882 116.727 25.6778 116.727 25.0426H120.821V24.2826C120.821 22.57 119.539 21.4812 117.86 21.4812C116.182 21.4812 114.764 22.6834 114.764 24.4981ZM116.727 23.897C116.76 23.2732 117.225 22.8421 117.872 22.8421C118.507 22.8421 118.938 23.2732 118.961 23.897H116.727ZM121.331 27.5152H123.441L124.609 25.7685L125.767 27.5152H127.955L125.914 24.6002L127.933 21.6285H125.879L124.711 23.4207L123.543 21.6285H121.354L123.384 24.5663L121.331 27.5152ZM131.188 27.5152V23.4432C131.438 23.1938 131.8 23.0804 132.186 23.0804C132.889 23.0804 133.275 23.432 133.275 24.1466V27.5152H135.203V23.5567C135.203 22.2183 134.307 21.4812 133.037 21.4812C132.118 21.4812 131.471 21.9461 131.097 22.4224V21.6285H128.046V22.8762H129.259V27.5152H131.188ZM139.593 21.4812C137.721 21.4812 136.292 22.7061 136.292 24.5663C136.292 26.4376 137.721 27.6628 139.593 27.6628C141.43 27.6628 142.871 26.4376 142.871 24.5663C142.871 22.7061 141.43 21.4812 139.593 21.4812ZM138.231 24.5663C138.231 23.6701 138.799 23.0237 139.593 23.0237C140.375 23.0237 140.943 23.6701 140.943 24.5663C140.943 25.4736 140.375 26.1202 139.593 26.1202C138.799 26.1202 138.231 25.4736 138.231 24.5663ZM146.024 19.2693H142.882V20.517H144.095V27.5152H146.024V19.2693ZM150.47 21.4812C148.599 21.4812 147.17 22.7061 147.17 24.5663C147.17 26.4376 148.599 27.6628 150.47 27.6628C152.307 27.6628 153.748 26.4376 153.748 24.5663C153.748 22.7061 152.307 21.4812 150.47 21.4812ZM149.109 24.5663C149.109 23.6701 149.676 23.0237 150.47 23.0237C151.253 23.0237 151.82 23.6701 151.82 24.5663C151.82 25.4736 151.253 26.1202 150.47 26.1202C149.676 26.1202 149.109 25.4736 149.109 24.5663ZM157.672 29.9085C159.476 29.9085 160.927 28.9557 160.927 27.1296V21.6285H159.091V22.4452C158.83 22.0028 158.217 21.4812 157.275 21.4812C155.779 21.4812 154.61 22.5813 154.61 24.4415C154.61 26.3016 155.779 27.3904 157.275 27.3904C158.127 27.3904 158.716 26.9594 159.011 26.5511V27.0956C159.011 28.1391 158.149 28.468 157.332 28.468C156.539 28.468 155.823 28.2412 155.177 27.7988V29.33C155.779 29.6816 156.572 29.9085 157.672 29.9085ZM156.55 24.4415C156.55 23.5341 157.037 22.9669 157.809 22.9669C158.263 22.9669 158.659 23.1144 159.011 23.432V25.4623C158.659 25.7799 158.263 25.9272 157.809 25.9272C157.037 25.9272 156.55 25.3488 156.55 24.4415ZM164.863 21.6285H161.722V22.8762H162.935V27.5152H164.863V21.6285ZM162.765 19.8932C162.765 20.4602 163.242 20.8799 163.843 20.8799C164.455 20.8799 164.931 20.4602 164.931 19.8932C164.931 19.3373 164.455 18.9063 163.843 18.9063C163.242 18.9063 162.765 19.3373 162.765 19.8932ZM170.308 21.6285L168.992 25.4282L167.79 21.6285H165.737L167.937 27.4925C167.665 28.0597 167.246 28.366 166.622 28.366C166.327 28.366 166.1 28.2978 165.987 28.2298V29.7157C166.134 29.7951 166.508 29.9085 166.962 29.9085C168.539 29.9085 169.548 28.8423 170.263 26.948L172.27 21.6285H170.308ZM179.087 27.4132V26.2335C179.031 26.2676 178.928 26.2903 178.826 26.2903C178.611 26.2903 178.407 26.1996 178.407 25.9272V23.8176C178.407 22.3772 177.34 21.4812 175.503 21.4812C174.539 21.4812 173.631 21.7306 173.098 22.0482V23.568C173.688 23.1144 174.448 22.9103 175.128 22.9103C175.945 22.9103 176.523 23.2052 176.523 23.829V24.0784C176.183 23.9877 175.741 23.9311 175.31 23.9311C173.903 23.9311 172.587 24.4754 172.587 25.8138C172.587 26.88 173.54 27.6628 174.777 27.6628C175.763 27.6628 176.285 27.3111 176.603 26.88C176.807 27.4018 177.397 27.6628 178.055 27.6628C178.588 27.6628 178.985 27.4925 179.087 27.4132ZM174.516 25.7117C174.516 25.2013 175.106 25.054 175.594 25.054C175.923 25.054 176.251 25.0992 176.523 25.1788V25.8365C176.229 26.1541 175.877 26.3356 175.401 26.3356C174.867 26.3356 174.516 26.0861 174.516 25.7117ZM181.991 19.2693H178.849V20.517H180.063V27.5152H181.991V19.2693ZM189.624 27.4132V26.2335C189.567 26.2676 189.465 26.2903 189.363 26.2903C189.147 26.2903 188.943 26.1996 188.943 25.9272V23.8176C188.943 22.3772 187.877 21.4812 186.04 21.4812C185.075 21.4812 184.168 21.7306 183.635 22.0482V23.568C184.225 23.1144 184.985 22.9103 185.666 22.9103C186.483 22.9103 187.061 23.2052 187.061 23.829V24.0784C186.72 23.9877 186.278 23.9311 185.847 23.9311C184.44 23.9311 183.125 24.4754 183.125 25.8138C183.125 26.88 184.078 27.6628 185.314 27.6628C186.301 27.6628 186.823 27.3111 187.14 26.88C187.344 27.4018 187.934 27.6628 188.592 27.6628C189.125 27.6628 189.522 27.4925 189.624 27.4132ZM185.053 25.7117C185.053 25.2013 185.643 25.054 186.131 25.054C186.459 25.054 186.788 25.0992 187.061 25.1788V25.8365C186.766 26.1541 186.414 26.3356 185.938 26.3356C185.405 26.3356 185.053 26.0861 185.053 25.7117ZM190.928 27.5152H192.856V23.7156C193.14 23.4432 193.605 23.2391 194.308 23.2391C194.592 23.2391 194.875 23.2845 195.046 23.33V21.6512C194.943 21.6058 194.739 21.5719 194.547 21.5719C193.605 21.5719 193.015 22.0596 192.766 22.6607V21.6285H189.738V22.8762H190.928V27.5152ZM65.799 38.1999C65.799 40.5364 67.4777 41.614 69.542 41.614C71.6175 41.614 73.3076 40.5364 73.3076 38.1999V33.4813H71.2887V38.1431C71.2887 39.2887 70.5515 39.9466 69.542 39.9466C68.5438 39.9466 67.8179 39.2887 67.8179 38.1431V33.4813H64.4492V34.7744H65.799V38.1999ZM77.2321 41.4664V37.3944C77.4817 37.145 77.8446 37.0316 78.2302 37.0316C78.9335 37.0316 79.3191 37.3832 79.3191 38.0978V41.4664H81.2475V37.5079C81.2475 36.1695 80.3515 35.4324 79.0809 35.4324C78.1622 35.4324 77.5156 35.8973 77.1414 36.3736V35.5797H74.0903V36.8274H75.3039V41.4664H77.2321ZM85.0131 35.5797H81.8715V36.8274H83.0851V41.4664H85.0131V35.5797ZM82.9147 33.8444C82.9147 34.4114 83.3915 34.8311 83.9923 34.8311C84.6051 34.8311 85.0811 34.4114 85.0811 33.8444C85.0811 33.2885 84.6051 32.8575 83.9923 32.8575C83.3915 32.8575 82.9147 33.2885 82.9147 33.8444ZM92.4195 35.5797H90.4571L89.1987 39.232L87.9395 35.5797H85.8867L88.1667 41.4664H90.1395L92.4195 35.5797ZM92.7483 38.4493C92.7483 40.4684 94.3483 41.614 96.4691 41.614C97.5355 41.614 98.3067 41.3871 98.7826 41.0468V39.6063C98.2387 39.9239 97.569 40.1394 96.6275 40.1394C95.6411 40.1394 94.7107 39.629 94.7107 38.9938H98.805V38.2338C98.805 36.5212 97.5235 35.4324 95.8451 35.4324C94.1667 35.4324 92.7483 36.6346 92.7483 38.4493ZM94.7107 37.8482C94.7451 37.2244 95.2099 36.7933 95.8563 36.7933C96.4915 36.7933 96.9227 37.2244 96.9451 37.8482H94.7107ZM100.461 41.4664H102.39V37.6668C102.673 37.3944 103.138 37.1903 103.841 37.1903C104.125 37.1903 104.408 37.2357 104.579 37.2812V35.6024C104.476 35.557 104.272 35.5231 104.079 35.5231C103.138 35.5231 102.548 36.0108 102.299 36.6119V35.5797H99.2707V36.8274H100.461V41.4664ZM105.463 39.5269V41.024C105.928 41.353 106.983 41.614 108.095 41.614C109.637 41.614 110.828 40.8992 110.828 39.6743C110.828 38.4834 109.785 38.041 108.684 37.8255L108.106 37.712C107.527 37.5988 107.267 37.5079 107.267 37.2698C107.267 36.9975 107.619 36.8615 108.208 36.8615C108.957 36.8615 109.773 37.0882 110.454 37.4853V36.0108C109.989 35.6818 109.172 35.4324 108.129 35.4324C106.495 35.4324 105.339 36.2149 105.339 37.3378C105.339 38.4493 106.291 38.9824 107.551 39.2093L108.117 39.3114C108.684 39.4135 108.9 39.5042 108.9 39.7424C108.9 40.0487 108.469 40.1847 107.834 40.1847C107.017 40.1847 106.007 39.8445 105.463 39.5269ZM114.311 35.5797H111.168V36.8274H112.382V41.4664H114.311V35.5797ZM112.212 33.8444C112.212 34.4114 112.688 34.8311 113.29 34.8311C113.902 34.8311 114.379 34.4114 114.379 33.8444C114.379 33.2885 113.902 32.8575 113.29 32.8575C112.688 32.8575 112.212 33.2885 112.212 33.8444ZM118.212 39.266V37.0202H119.687V35.5797H118.212V34.0712H116.284V35.5797H115.331V37.0202H116.284V39.4815C116.284 40.9106 117.18 41.614 118.575 41.614C118.972 41.614 119.471 41.5119 119.687 41.3871V39.9693C119.562 40.0373 119.323 40.0826 119.063 40.0826C118.541 40.0826 118.212 39.8218 118.212 39.266ZM120.379 38.4493C120.379 40.4684 121.978 41.614 124.099 41.614C125.165 41.614 125.936 41.3871 126.413 41.0468V39.6063C125.868 39.9239 125.199 40.1394 124.258 40.1394C123.271 40.1394 122.341 39.629 122.341 38.9938H126.435V38.2338C126.435 36.5212 125.154 35.4324 123.475 35.4324C121.796 35.4324 120.379 36.6346 120.379 38.4493ZM122.341 37.8482C122.375 37.2244 122.839 36.7933 123.487 36.7933C124.122 36.7933 124.552 37.2244 124.575 37.8482H122.341ZM130.008 39.266V37.0202H131.483V35.5797H130.008V34.0712H128.08V35.5797H127.127V37.0202H128.08V39.4815C128.08 40.9106 128.976 41.614 130.371 41.614C130.768 41.614 131.267 41.5119 131.483 41.3871V39.9693C131.358 40.0373 131.119 40.0826 130.859 40.0826C130.337 40.0826 130.008 39.8218 130.008 39.266ZM135.158 35.5797H132.015V36.8274H133.229V41.4664H135.158V35.5797ZM133.059 33.8444C133.059 34.4114 133.535 34.8311 134.137 34.8311C134.749 34.8311 135.226 34.4114 135.226 33.8444C135.226 33.2885 134.749 32.8575 134.137 32.8575C133.535 32.8575 133.059 33.2885 133.059 33.8444Z" fill="#2B2F3B"/>
</svg>
