<svg width="393" height="64" viewBox="0 0 393 64" fill="none" xmlns="http://www.w3.org/2000/svg">
<path d="M11.0312 34.0781H4.95312V31.625H11.0312C12.2083 31.625 13.1615 31.4375 13.8906 31.0625C14.6198 30.6875 15.151 30.1667 15.4844 29.5C15.8281 28.8333 16 28.0729 16 27.2188C16 26.4375 15.8281 25.7031 15.4844 25.0156C15.151 24.3281 14.6198 23.776 13.8906 23.3594C13.1615 22.9323 12.2083 22.7188 11.0312 22.7188H5.65625V43H2.64062V20.25H11.0312C12.75 20.25 14.2031 20.5469 15.3906 21.1406C16.5781 21.7344 17.4792 22.5573 18.0938 23.6094C18.7083 24.651 19.0156 25.8438 19.0156 27.1875C19.0156 28.6458 18.7083 29.8906 18.0938 30.9219C17.4792 31.9531 16.5781 32.7396 15.3906 33.2812C14.2031 33.8125 12.75 34.0781 11.0312 34.0781ZM21.4062 34.7344V34.375C21.4062 33.1562 21.5833 32.026 21.9375 30.9844C22.2917 29.9323 22.8021 29.0208 23.4688 28.25C24.1354 27.4688 24.9427 26.8646 25.8906 26.4375C26.8385 26 27.901 25.7812 29.0781 25.7812C30.2656 25.7812 31.3333 26 32.2812 26.4375C33.2396 26.8646 34.0521 27.4688 34.7188 28.25C35.3958 29.0208 35.9115 29.9323 36.2656 30.9844C36.6198 32.026 36.7969 33.1562 36.7969 34.375V34.7344C36.7969 35.9531 36.6198 37.0833 36.2656 38.125C35.9115 39.1667 35.3958 40.0781 34.7188 40.8594C34.0521 41.6302 33.2448 42.2344 32.2969 42.6719C31.3594 43.099 30.2969 43.3125 29.1094 43.3125C27.9219 43.3125 26.8542 43.099 25.9062 42.6719C24.9583 42.2344 24.1458 41.6302 23.4688 40.8594C22.8021 40.0781 22.2917 39.1667 21.9375 38.125C21.5833 37.0833 21.4062 35.9531 21.4062 34.7344ZM24.2969 34.375V34.7344C24.2969 35.5781 24.3958 36.375 24.5938 37.125C24.7917 37.8646 25.0885 38.5208 25.4844 39.0938C25.8906 39.6667 26.3958 40.1198 27 40.4531C27.6042 40.776 28.3073 40.9375 29.1094 40.9375C29.901 40.9375 30.5938 40.776 31.1875 40.4531C31.7917 40.1198 32.2917 39.6667 32.6875 39.0938C33.0833 38.5208 33.3802 37.8646 33.5781 37.125C33.7865 36.375 33.8906 35.5781 33.8906 34.7344V34.375C33.8906 33.5417 33.7865 32.7552 33.5781 32.0156C33.3802 31.2656 33.0781 30.6042 32.6719 30.0312C32.276 29.4479 31.776 28.9896 31.1719 28.6562C30.5781 28.3229 29.8802 28.1562 29.0781 28.1562C28.2865 28.1562 27.5885 28.3229 26.9844 28.6562C26.3906 28.9896 25.8906 29.4479 25.4844 30.0312C25.0885 30.6042 24.7917 31.2656 24.5938 32.0156C24.3958 32.7552 24.2969 33.5417 24.2969 34.375ZM44.7031 40L49.0469 26.0938H50.9531L50.5781 28.8594L46.1562 43H44.2969L44.7031 40ZM41.7812 26.0938L45.4844 40.1562L45.75 43H43.7969L38.8906 26.0938H41.7812ZM55.1094 40.0469L58.6406 26.0938H61.5156L56.6094 43H54.6719L55.1094 40.0469ZM51.375 26.0938L55.625 39.7656L56.1094 43H54.2656L49.7188 28.8281L49.3438 26.0938H51.375ZM71.5 43.3125C70.3229 43.3125 69.2552 43.1146 68.2969 42.7188C67.349 42.3125 66.5312 41.7448 65.8438 41.0156C65.1667 40.2865 64.6458 39.4219 64.2812 38.4219C63.9167 37.4219 63.7344 36.3281 63.7344 35.1406V34.4844C63.7344 33.1094 63.9375 31.8854 64.3438 30.8125C64.75 29.7292 65.3021 28.8125 66 28.0625C66.6979 27.3125 67.4896 26.7448 68.375 26.3594C69.2604 25.974 70.1771 25.7812 71.125 25.7812C72.3333 25.7812 73.375 25.9896 74.25 26.4062C75.1354 26.8229 75.8594 27.4062 76.4219 28.1562C76.9844 28.8958 77.401 29.7708 77.6719 30.7812C77.9427 31.7812 78.0781 32.875 78.0781 34.0625V35.3594H65.4531V33H75.1875V32.7812C75.1458 32.0312 74.9896 31.3021 74.7188 30.5938C74.4583 29.8854 74.0417 29.3021 73.4688 28.8438C72.8958 28.3854 72.1146 28.1562 71.125 28.1562C70.4688 28.1562 69.8646 28.2969 69.3125 28.5781C68.7604 28.849 68.2865 29.2552 67.8906 29.7969C67.4948 30.3385 67.1875 31 66.9688 31.7812C66.75 32.5625 66.6406 33.4635 66.6406 34.4844V35.1406C66.6406 35.9427 66.75 36.6979 66.9688 37.4062C67.1979 38.1042 67.526 38.7188 67.9531 39.25C68.3906 39.7812 68.9167 40.1979 69.5312 40.5C70.1562 40.8021 70.8646 40.9531 71.6562 40.9531C72.6771 40.9531 73.5417 40.7448 74.25 40.3281C74.9583 39.9115 75.5781 39.3542 76.1094 38.6562L77.8594 40.0469C77.4948 40.599 77.0312 41.125 76.4688 41.625C75.9062 42.125 75.2135 42.5312 74.3906 42.8438C73.5781 43.1562 72.6146 43.3125 71.5 43.3125ZM84.3438 28.75V43H81.4531V26.0938H84.2656L84.3438 28.75ZM89.625 26L89.6094 28.6875C89.3698 28.6354 89.1406 28.6042 88.9219 28.5938C88.7135 28.5729 88.474 28.5625 88.2031 28.5625C87.5365 28.5625 86.9479 28.6667 86.4375 28.875C85.9271 29.0833 85.4948 29.375 85.1406 29.75C84.7865 30.125 84.5052 30.5729 84.2969 31.0938C84.099 31.6042 83.9688 32.1667 83.9062 32.7812L83.0938 33.25C83.0938 32.2292 83.1927 31.2708 83.3906 30.375C83.599 29.4792 83.9167 28.6875 84.3438 28C84.7708 27.3021 85.3125 26.7604 85.9688 26.375C86.6354 25.9792 87.4271 25.7812 88.3438 25.7812C88.5521 25.7812 88.7917 25.8073 89.0625 25.8594C89.3333 25.901 89.5208 25.9479 89.625 26ZM99 43.3125C97.8229 43.3125 96.7552 43.1146 95.7969 42.7188C94.849 42.3125 94.0312 41.7448 93.3438 41.0156C92.6667 40.2865 92.1458 39.4219 91.7812 38.4219C91.4167 37.4219 91.2344 36.3281 91.2344 35.1406V34.4844C91.2344 33.1094 91.4375 31.8854 91.8438 30.8125C92.25 29.7292 92.8021 28.8125 93.5 28.0625C94.1979 27.3125 94.9896 26.7448 95.875 26.3594C96.7604 25.974 97.6771 25.7812 98.625 25.7812C99.8333 25.7812 100.875 25.9896 101.75 26.4062C102.635 26.8229 103.359 27.4062 103.922 28.1562C104.484 28.8958 104.901 29.7708 105.172 30.7812C105.443 31.7812 105.578 32.875 105.578 34.0625V35.3594H92.9531V33H102.688V32.7812C102.646 32.0312 102.49 31.3021 102.219 30.5938C101.958 29.8854 101.542 29.3021 100.969 28.8438C100.396 28.3854 99.6146 28.1562 98.625 28.1562C97.9688 28.1562 97.3646 28.2969 96.8125 28.5781C96.2604 28.849 95.7865 29.2552 95.3906 29.7969C94.9948 30.3385 94.6875 31 94.4688 31.7812C94.25 32.5625 94.1406 33.4635 94.1406 34.4844V35.1406C94.1406 35.9427 94.25 36.6979 94.4688 37.4062C94.6979 38.1042 95.026 38.7188 95.4531 39.25C95.8906 39.7812 96.4167 40.1979 97.0312 40.5C97.6562 40.8021 98.3646 40.9531 99.1562 40.9531C100.177 40.9531 101.042 40.7448 101.75 40.3281C102.458 39.9115 103.078 39.3542 103.609 38.6562L105.359 40.0469C104.995 40.599 104.531 41.125 103.969 41.625C103.406 42.125 102.714 42.5312 101.891 42.8438C101.078 43.1562 100.115 43.3125 99 43.3125ZM119.609 39.7188V19H122.516V43H119.859L119.609 39.7188ZM108.234 34.7344V34.4062C108.234 33.1146 108.391 31.9427 108.703 30.8906C109.026 29.8281 109.479 28.9167 110.062 28.1562C110.656 27.3958 111.359 26.8125 112.172 26.4062C112.995 25.9896 113.911 25.7812 114.922 25.7812C115.984 25.7812 116.911 25.9688 117.703 26.3438C118.505 26.7083 119.182 27.2448 119.734 27.9531C120.297 28.651 120.74 29.4948 121.062 30.4844C121.385 31.474 121.609 32.5938 121.734 33.8438V35.2812C121.62 36.5208 121.396 37.6354 121.062 38.625C120.74 39.6146 120.297 40.4583 119.734 41.1562C119.182 41.8542 118.505 42.3906 117.703 42.7656C116.901 43.1302 115.964 43.3125 114.891 43.3125C113.901 43.3125 112.995 43.099 112.172 42.6719C111.359 42.2448 110.656 41.6458 110.062 40.875C109.479 40.1042 109.026 39.1979 108.703 38.1562C108.391 37.1042 108.234 35.9635 108.234 34.7344ZM111.141 34.4062V34.7344C111.141 35.5781 111.224 36.3698 111.391 37.1094C111.568 37.849 111.839 38.5 112.203 39.0625C112.568 39.625 113.031 40.0677 113.594 40.3906C114.156 40.7031 114.828 40.8594 115.609 40.8594C116.568 40.8594 117.354 40.6562 117.969 40.25C118.594 39.8438 119.094 39.3073 119.469 38.6406C119.844 37.974 120.135 37.25 120.344 36.4688V32.7031C120.219 32.1302 120.036 31.5781 119.797 31.0469C119.568 30.5052 119.266 30.026 118.891 29.6094C118.526 29.1823 118.073 28.8438 117.531 28.5938C117 28.3438 116.37 28.2188 115.641 28.2188C114.849 28.2188 114.167 28.3854 113.594 28.7188C113.031 29.0417 112.568 29.4896 112.203 30.0625C111.839 30.625 111.568 31.2812 111.391 32.0312C111.224 32.7708 111.141 33.5625 111.141 34.4062ZM134.938 19H137.844V39.7188L137.594 43H134.938V19ZM149.266 34.4062V34.7344C149.266 35.9635 149.12 37.1042 148.828 38.1562C148.536 39.1979 148.109 40.1042 147.547 40.875C146.984 41.6458 146.297 42.2448 145.484 42.6719C144.672 43.099 143.74 43.3125 142.688 43.3125C141.615 43.3125 140.672 43.1302 139.859 42.7656C139.057 42.3906 138.38 41.8542 137.828 41.1562C137.276 40.4583 136.833 39.6146 136.5 38.625C136.177 37.6354 135.953 36.5208 135.828 35.2812V33.8438C135.953 32.5938 136.177 31.474 136.5 30.4844C136.833 29.4948 137.276 28.651 137.828 27.9531C138.38 27.2448 139.057 26.7083 139.859 26.3438C140.661 25.9688 141.594 25.7812 142.656 25.7812C143.719 25.7812 144.661 25.9896 145.484 26.4062C146.307 26.8125 146.995 27.3958 147.547 28.1562C148.109 28.9167 148.536 29.8281 148.828 30.8906C149.12 31.9427 149.266 33.1146 149.266 34.4062ZM146.359 34.7344V34.4062C146.359 33.5625 146.281 32.7708 146.125 32.0312C145.969 31.2812 145.719 30.625 145.375 30.0625C145.031 29.4896 144.578 29.0417 144.016 28.7188C143.453 28.3854 142.76 28.2188 141.938 28.2188C141.208 28.2188 140.573 28.3438 140.031 28.5938C139.5 28.8438 139.047 29.1823 138.672 29.6094C138.297 30.026 137.99 30.5052 137.75 31.0469C137.521 31.5781 137.349 32.1302 137.234 32.7031V36.4688C137.401 37.1979 137.672 37.901 138.047 38.5781C138.432 39.2448 138.943 39.7917 139.578 40.2188C140.224 40.6458 141.021 40.8594 141.969 40.8594C142.75 40.8594 143.417 40.7031 143.969 40.3906C144.531 40.0677 144.984 39.625 145.328 39.0625C145.682 38.5 145.943 37.849 146.109 37.1094C146.276 36.3698 146.359 35.5781 146.359 34.7344ZM157.484 41.25L162.188 26.0938H165.281L158.5 45.6094C158.344 46.026 158.135 46.474 157.875 46.9531C157.625 47.4427 157.302 47.9062 156.906 48.3438C156.51 48.7812 156.031 49.1354 155.469 49.4062C154.917 49.6875 154.255 49.8281 153.484 49.8281C153.255 49.8281 152.964 49.7969 152.609 49.7344C152.255 49.6719 152.005 49.6198 151.859 49.5781L151.844 47.2344C151.927 47.2448 152.057 47.2552 152.234 47.2656C152.422 47.2865 152.552 47.2969 152.625 47.2969C153.281 47.2969 153.839 47.2083 154.297 47.0312C154.755 46.8646 155.141 46.5781 155.453 46.1719C155.776 45.776 156.052 45.2292 156.281 44.5312L157.484 41.25ZM154.031 26.0938L158.422 39.2188L159.172 42.2656L157.094 43.3281L150.875 26.0938H154.031Z" fill="#99A0B0"/>
<g clip-path="url(#clip0_2447_6988)">
<path d="M257.453 22.4062H251.909L245.952 36.0251H257.453C259.259 36.0251 260.991 36.7425 262.268 38.0195C263.545 39.2965 264.262 41.0285 264.262 42.8345C264.262 44.6405 263.545 46.3725 262.268 47.6495C260.991 48.9265 259.259 49.6439 257.453 49.6439H239.981L234.025 63.2628H257.453C268.697 63.2628 277.895 54.0651 277.895 42.8203C277.895 31.5755 268.697 22.4062 257.453 22.4062Z" fill="#F15B26"/>
<path d="M234.442 49.6417H239.987L245.957 36.0228H234.442C232.637 36.0228 230.904 35.3054 229.627 34.0284C228.35 32.7514 227.633 31.0194 227.633 29.2134C227.633 27.4075 228.35 25.6755 229.627 24.3984C230.904 23.1214 232.637 22.404 234.442 22.404H251.914L257.884 8.78517H234.442C223.198 8.77096 214 17.9686 214 29.2134C214 40.4582 223.198 49.6417 234.442 49.6417Z" fill="#F15B26"/>
<path d="M293.411 26.2852C291.037 26.2852 288.762 25.3327 286.559 23.4136L283.275 28.3607C286.061 30.9765 289.416 32.2985 293.439 32.2985C296.467 32.2985 298.841 31.5877 300.618 30.1804C302.41 28.7303 303.277 26.8965 303.277 24.6646C303.277 22.0062 302.154 20.215 299.367 18.8503C298.003 18.1395 296.169 17.4856 293.965 16.8601C292.601 16.4904 291.89 15.9502 291.89 15.1968C291.89 14.486 292.757 13.9174 293.965 13.9174C295.756 13.9174 297.576 14.5855 299.481 15.8649L302.637 11.0458C300.192 9.05553 297.363 8.06042 294.079 8.06042C291.207 8.06042 288.89 8.72856 287.184 10.0933C285.478 11.4154 284.611 13.1639 284.611 15.3247C284.611 18.1537 286.019 20.2292 288.89 21.5513C289.43 21.8072 290.511 22.1768 292.046 22.717C293.624 23.2572 294.449 23.5131 294.577 23.5415C295.401 23.8685 295.828 24.295 295.828 24.8352C295.856 25.7876 295.031 26.2852 293.411 26.2852ZM335.717 10.8325C333.841 9.04131 331.609 8.17414 328.951 8.17414C325.709 8.17414 323.008 9.2972 320.89 11.586C318.772 13.8321 317.734 16.6895 317.734 20.1439C317.734 23.5984 318.772 26.4558 320.89 28.7872C323.008 31.1186 325.667 32.2701 328.951 32.2701C331.609 32.2701 333.855 31.4029 335.717 29.697V31.6872H342.612V8.757H335.717V10.8325ZM334.097 23.9964C333.608 24.4921 333.026 24.8866 332.384 25.1573C331.743 25.4281 331.054 25.5698 330.358 25.5744C329.661 25.5791 328.971 25.4465 328.326 25.1843C327.681 24.922 327.094 24.5353 326.598 24.0462V24.0391L326.555 23.9964C325.56 22.9587 325.063 21.665 325.063 20.1724C325.049 19.4811 325.175 18.7942 325.431 18.1521C325.687 17.51 326.07 16.9257 326.555 16.4336C327.55 15.3958 328.801 14.8556 330.337 14.8556C331.041 14.8485 331.739 14.9847 332.39 15.256C333.04 15.5273 333.628 15.9279 334.118 16.4336C334.617 16.918 335.011 17.4999 335.275 18.1432C335.539 18.7864 335.668 19.4771 335.653 20.1724C335.639 21.6793 335.142 22.9587 334.104 23.9964H334.097ZM361.789 18.8503C360.425 18.1395 358.591 17.4856 356.387 16.8601C355.023 16.4904 354.312 15.936 354.312 15.1968C354.312 14.486 355.179 13.9174 356.387 13.9174C358.179 13.9174 359.998 14.5855 361.903 15.8649L365.059 11.0458C362.614 9.05553 359.785 8.06042 356.501 8.06042C353.644 8.06042 351.326 8.71435 349.621 10.0933C347.915 11.4154 347.047 13.1639 347.047 15.3247C347.047 18.1537 348.455 20.2292 351.326 21.5513C351.867 21.8072 352.947 22.1768 354.482 22.717C356.06 23.2572 356.885 23.5131 357.013 23.5415C357.837 23.8685 358.264 24.295 358.264 24.8352C358.264 25.7876 357.439 26.2852 355.819 26.2852C353.445 26.2852 351.17 25.3327 348.967 23.4136L345.683 28.3607C348.469 30.9765 351.824 32.2985 355.847 32.2985C358.875 32.2985 361.249 31.5877 363.026 30.1804C364.817 28.7303 365.685 26.8965 365.685 24.6646C365.685 22.0062 364.561 20.215 361.789 18.8503ZM392.425 31.673V17.5993C392.425 14.5713 391.557 12.1972 389.852 10.5908C388.146 8.98445 386.027 8.14571 383.582 8.14571C380.412 8.14571 377.768 9.69525 376.56 11.6144V0H369.253V63.3461H376.56V51.3905C376.56 48.4478 378.379 46.486 381.038 46.486C383.525 46.486 385.061 48.2346 385.061 51.2199V63.3461H392.41V49.2723C392.41 46.2443 391.543 43.8703 389.837 42.2497C388.131 40.6291 386.013 39.7903 383.568 39.7903C380.398 39.7903 377.754 41.3398 376.545 43.259V19.7175C376.545 16.7748 378.365 14.813 381.023 14.813C383.511 14.813 385.047 16.5615 385.047 19.5469V31.673H392.425ZM335.717 42.5056C333.855 40.7143 331.609 39.8472 328.951 39.8472C325.709 39.8472 323.008 40.9702 320.89 43.259C318.772 45.5051 317.734 48.3625 317.734 51.817C317.734 55.2714 318.772 58.1288 320.89 60.446C323.008 62.7632 325.667 63.9289 328.951 63.9289C331.609 63.9289 333.855 63.0617 335.717 61.3558V63.3461H342.612V40.43H335.717V42.5056ZM334.097 55.6695C333.608 56.1651 333.026 56.5596 332.384 56.8304C331.743 57.1011 331.054 57.2428 330.358 57.2475C329.661 57.2521 328.971 57.1195 328.326 56.8573C327.681 56.5951 327.094 56.2084 326.598 55.7192V55.7121L326.555 55.6695C325.56 54.6317 325.063 53.3381 325.063 51.8454C325.049 51.1541 325.175 50.4672 325.431 49.8251C325.687 49.183 326.07 48.5987 326.555 48.1066C327.55 47.0689 328.801 46.5286 330.337 46.5286C331.041 46.5215 331.739 46.6578 332.39 46.929C333.04 47.2003 333.628 47.6009 334.118 48.1066C334.617 48.591 335.011 49.1729 335.275 49.8162C335.539 50.4594 335.668 51.1502 335.653 51.8454C335.639 53.3381 335.142 54.6317 334.104 55.6695H334.097ZM361.789 50.5233C360.425 49.8125 358.591 49.1586 356.387 48.5331C355.023 48.1635 354.312 47.6233 354.312 46.8698C354.312 46.159 355.179 45.5904 356.387 45.5904C358.179 45.5904 359.998 46.2585 361.903 47.538L365.059 42.7188C362.614 40.7286 359.785 39.7334 356.501 39.7334C353.629 39.7334 351.312 40.4016 349.606 41.7663C347.9 43.0884 347.033 44.837 347.033 46.9978C347.033 49.8267 348.441 51.9023 351.312 53.2243C351.852 53.4802 352.933 53.8498 354.468 54.39C356.046 54.9302 356.871 55.1719 356.999 55.2146C357.823 55.5415 358.25 55.968 358.25 56.5082C358.25 57.4607 357.425 57.9582 355.804 57.9582C353.43 57.9582 351.156 57.0058 348.952 55.1008L345.669 60.048C348.455 62.6637 351.81 64 355.833 64C358.861 64 361.235 63.2892 363.012 61.8818C364.803 60.4176 365.67 58.5979 365.67 56.3518C365.685 53.6792 364.561 51.888 361.789 50.5233Z" fill="#202239"/>
<path d="M314.162 0H306.813V42.2212C305.15 40.6433 303.074 39.8614 300.629 39.8614C297.43 39.8614 294.772 41.0271 292.611 43.3016C290.493 45.5904 289.413 48.4478 289.413 51.9023C289.413 55.3852 290.493 58.2568 292.611 60.5455C294.729 62.8343 297.43 63.9573 300.629 63.9573C303.159 63.9573 305.32 63.0902 307.026 61.3843V63.3745H314.162V0ZM301.88 57.2474C300.387 57.2474 299.136 56.7499 298.141 55.7121C297.146 54.6744 296.648 53.3807 296.648 51.8454C296.635 51.1541 296.761 50.4672 297.017 49.8251C297.273 49.183 297.656 48.5987 298.141 48.1066C298.617 47.5944 299.197 47.1889 299.841 46.9169C300.486 46.6449 301.181 46.5126 301.88 46.5286C304.908 46.5286 307.111 48.8601 307.111 51.8454C307.111 54.8734 304.908 57.2474 301.88 57.2474Z" fill="#202239"/>
</g>
<defs>
<clipPath id="clip0_2447_6988">
<rect width="178.424" height="64" fill="white" transform="translate(214)"/>
</clipPath>
</defs>
</svg>
