<svg width="14" height="14" viewBox="0 0 14 14" fill="none" xmlns="http://www.w3.org/2000/svg">
<path d="M12.8332 13.271H1.1665C0.927337 13.271 0.729004 13.0727 0.729004 12.8335C0.729004 12.5943 0.927337 12.396 1.1665 12.396H12.8332C13.0723 12.396 13.2707 12.5943 13.2707 12.8335C13.2707 13.0727 13.0723 13.271 12.8332 13.271Z" fill="#9DA4B2"/>
<path d="M1.75584 13.2766C1.63917 13.2766 1.52832 13.2299 1.44666 13.1482C1.36499 13.0666 1.31834 12.9558 1.31834 12.8391L1.3125 4.12409C1.3125 3.59326 1.58082 3.09157 2.02415 2.79407L4.35748 1.23658C4.89998 0.874915 5.60001 0.874915 6.13668 1.23658L8.47001 2.79407C8.91918 3.09157 9.18166 3.58742 9.18166 4.12409L9.1875 12.8274C9.1875 13.0666 8.995 13.2649 8.75 13.2649L1.75584 13.2766ZM5.25 1.83743C5.11 1.83743 4.97 1.87824 4.8475 1.95991L2.51417 3.51744C2.31 3.6516 2.1875 3.87909 2.1875 4.12409L2.19334 12.4016L8.31834 12.3899L8.3125 4.12409C8.3125 3.87909 8.19001 3.65157 7.99167 3.52324L5.65834 1.96575C5.53584 1.87825 5.39 1.83743 5.25 1.83743Z" fill="#9DA4B2"/>
<path d="M11.6548 13.2767C11.4156 13.2767 11.2173 13.0783 11.2173 12.8392V10.5C11.2173 10.2608 11.4156 10.0625 11.6548 10.0625C11.894 10.0625 12.0923 10.2608 12.0923 10.5V12.8392C12.0923 13.0783 11.8998 13.2767 11.6548 13.2767Z" fill="#9DA4B2"/>
<path d="M11.6667 10.9375C10.78 10.9375 10.0625 10.22 10.0625 9.33333V8.16667C10.0625 7.28 10.78 6.5625 11.6667 6.5625C12.5533 6.5625 13.2708 7.28 13.2708 8.16667V9.33333C13.2708 10.22 12.5533 10.9375 11.6667 10.9375ZM11.6667 7.4375C11.2642 7.4375 10.9375 7.76417 10.9375 8.16667V9.33333C10.9375 9.73583 11.2642 10.0625 11.6667 10.0625C12.0692 10.0625 12.3958 9.73583 12.3958 9.33333V8.16667C12.3958 7.76417 12.0692 7.4375 11.6667 7.4375Z" fill="#9DA4B2"/>
<path d="M8.75 8.604H1.75C1.51083 8.604 1.3125 8.40567 1.3125 8.1665C1.3125 7.92734 1.51083 7.729 1.75 7.729H8.75C8.98917 7.729 9.1875 7.92734 9.1875 8.1665C9.1875 8.40567 8.98917 8.604 8.75 8.604Z" fill="#9DA4B2"/>
<path d="M5.25 13.271C5.01083 13.271 4.8125 13.0727 4.8125 12.8335V10.646C4.8125 10.4068 5.01083 10.2085 5.25 10.2085C5.48917 10.2085 5.6875 10.4068 5.6875 10.646V12.8335C5.6875 13.0727 5.48917 13.271 5.25 13.271Z" fill="#9DA4B2"/>
<path d="M5.25 6.5625C4.52667 6.5625 3.9375 5.97333 3.9375 5.25C3.9375 4.52667 4.52667 3.9375 5.25 3.9375C5.97333 3.9375 6.5625 4.52667 6.5625 5.25C6.5625 5.97333 5.97333 6.5625 5.25 6.5625ZM5.25 4.8125C5.01083 4.8125 4.8125 5.01083 4.8125 5.25C4.8125 5.48917 5.01083 5.6875 5.25 5.6875C5.48917 5.6875 5.6875 5.48917 5.6875 5.25C5.6875 5.01083 5.48917 4.8125 5.25 4.8125Z" fill="#9DA4B2"/>
</svg>
