<svg width="20" height="20" viewBox="0 0 20 20" fill="none" xmlns="http://www.w3.org/2000/svg">
<path d="M18.3335 6.0415H13.3335C12.9918 6.0415 12.7085 5.75817 12.7085 5.4165C12.7085 5.07484 12.9918 4.7915 13.3335 4.7915H18.3335C18.6752 4.7915 18.9585 5.07484 18.9585 5.4165C18.9585 5.75817 18.6752 6.0415 18.3335 6.0415Z" fill="#9DA4B3"/>
<path d="M4.99984 6.0415H1.6665C1.32484 6.0415 1.0415 5.75817 1.0415 5.4165C1.0415 5.07484 1.32484 4.7915 1.6665 4.7915H4.99984C5.3415 4.7915 5.62484 5.07484 5.62484 5.4165C5.62484 5.75817 5.3415 6.0415 4.99984 6.0415Z" fill="#9DA4B3"/>
<path d="M8.33317 8.95833C6.38317 8.95833 4.7915 7.36667 4.7915 5.41667C4.7915 3.46667 6.38317 1.875 8.33317 1.875C10.2832 1.875 11.8748 3.46667 11.8748 5.41667C11.8748 7.36667 10.2832 8.95833 8.33317 8.95833ZM8.33317 3.125C7.0665 3.125 6.0415 4.15 6.0415 5.41667C6.0415 6.68333 7.0665 7.70833 8.33317 7.70833C9.59984 7.70833 10.6248 6.68333 10.6248 5.41667C10.6248 4.15 9.59984 3.125 8.33317 3.125Z" fill="#9DA4B3"/>
<path d="M18.3333 15.2085H15C14.6583 15.2085 14.375 14.9252 14.375 14.5835C14.375 14.2418 14.6583 13.9585 15 13.9585H18.3333C18.675 13.9585 18.9583 14.2418 18.9583 14.5835C18.9583 14.9252 18.675 15.2085 18.3333 15.2085Z" fill="#9DA4B3"/>
<path d="M6.6665 15.2085H1.6665C1.32484 15.2085 1.0415 14.9252 1.0415 14.5835C1.0415 14.2418 1.32484 13.9585 1.6665 13.9585H6.6665C7.00817 13.9585 7.2915 14.2418 7.2915 14.5835C7.2915 14.9252 7.00817 15.2085 6.6665 15.2085Z" fill="#9DA4B3"/>
<path d="M11.6667 18.1248C9.71667 18.1248 8.125 16.5332 8.125 14.5832C8.125 12.6332 9.71667 11.0415 11.6667 11.0415C13.6167 11.0415 15.2083 12.6332 15.2083 14.5832C15.2083 16.5332 13.6167 18.1248 11.6667 18.1248ZM11.6667 12.2915C10.4 12.2915 9.375 13.3165 9.375 14.5832C9.375 15.8498 10.4 16.8748 11.6667 16.8748C12.9333 16.8748 13.9583 15.8498 13.9583 14.5832C13.9583 13.3165 12.9333 12.2915 11.6667 12.2915Z" fill="#9DA4B3"/>
</svg>
