<svg width="14" height="14" viewBox="0 0 14 14" fill="none" xmlns="http://www.w3.org/2000/svg">
<path d="M7.00569 9.91675C6.50986 9.91675 6.00819 9.78841 5.61736 9.53758L2.10569 7.24508C1.45236 6.81925 1.06152 6.10175 1.06152 5.32008C1.06152 4.53841 1.45236 3.82091 2.10569 3.39508L5.62319 1.10841C6.40486 0.600915 7.62402 0.600915 8.39986 1.11425L11.894 3.40675C12.5415 3.83258 12.9324 4.55008 12.9324 5.32591C12.9324 6.10175 12.5415 6.81925 11.894 7.24508L8.39986 9.53758C8.00902 9.79425 7.50736 9.91675 7.00569 9.91675ZM7.00569 1.60425C6.67319 1.60425 6.34069 1.68008 6.10152 1.84341L2.58986 4.13008C2.18152 4.39841 1.94236 4.83008 1.94236 5.32008C1.94236 5.81008 2.17569 6.24175 2.58986 6.51008L6.10152 8.80258C6.58569 9.11758 7.43736 9.11758 7.92152 8.80258L11.4157 6.51008C11.824 6.24175 12.0574 5.81008 12.0574 5.32008C12.0574 4.83008 11.824 4.39841 11.4157 4.13008L7.92152 1.83758C7.67652 1.68591 7.34402 1.60425 7.00569 1.60425Z" fill="#9DA4B2"/>
<path d="M7.00002 13.2707C6.74336 13.2707 6.48086 13.2357 6.27086 13.1657L4.41002 12.5474C3.52919 12.2557 2.83502 11.2932 2.84086 10.3657L2.84669 7.62988C2.84669 7.39072 3.04502 7.19238 3.28419 7.19238C3.52336 7.19238 3.72169 7.39072 3.72169 7.62988L3.71586 10.3657C3.71586 10.914 4.17086 11.544 4.69002 11.719L6.55086 12.3374C6.78419 12.4132 7.21586 12.4132 7.44919 12.3374L9.31002 11.719C9.82919 11.544 10.2842 10.914 10.2842 10.3715V7.66488C10.2842 7.42572 10.4825 7.22738 10.7217 7.22738C10.9609 7.22738 11.1592 7.42572 11.1592 7.66488V10.3715C11.1592 11.299 10.4709 12.2557 9.59002 12.5532L7.72919 13.1715C7.51919 13.2357 7.25669 13.2707 7.00002 13.2707Z" fill="#9DA4B2"/>
<path d="M12.4834 9.1875C12.2442 9.1875 12.0459 8.98917 12.0459 8.75V5.25C12.0459 5.01083 12.2442 4.8125 12.4834 4.8125C12.7226 4.8125 12.9209 5.01083 12.9209 5.25V8.75C12.9209 8.98917 12.7226 9.1875 12.4834 9.1875Z" fill="#9DA4B2"/>
</svg>
