<svg width="14" height="14" viewBox="0 0 14 14" fill="none" xmlns="http://www.w3.org/2000/svg">
<path d="M7 11C6.20888 11 5.43552 10.7654 4.77772 10.3259C4.11992 9.88635 3.60723 9.26164 3.30448 8.53074C3.00173 7.79983 2.92252 6.99556 3.07686 6.21964C3.2312 5.44372 3.61216 4.73098 4.17157 4.17157C4.73098 3.61216 5.44372 3.2312 6.21964 3.07686C6.99556 2.92252 7.79983 3.00173 8.53074 3.30448C9.26164 3.60723 9.88635 4.11992 10.3259 4.77772C10.7654 5.43552 11 6.20888 11 7C11 8.06087 10.5786 9.07828 9.82843 9.82843C9.07828 10.5786 8.06087 11 7 11ZM7 4.33334C6.47259 4.33334 5.95701 4.48973 5.51848 4.78275C5.07995 5.07577 4.73816 5.49224 4.53632 5.97951C4.33449 6.46678 4.28168 7.00296 4.38457 7.52024C4.48747 8.03753 4.74144 8.51268 5.11438 8.88562C5.48732 9.25856 5.96248 9.51254 6.47976 9.61543C6.99704 9.71832 7.53322 9.66551 8.02049 9.46368C8.50776 9.26185 8.92424 8.92005 9.21725 8.48152C9.51027 8.04299 9.66667 7.52742 9.66667 7C9.66667 6.29276 9.38572 5.61448 8.88562 5.11438C8.38552 4.61429 7.70725 4.33334 7 4.33334Z" fill="white"/>
<path d="M7.00016 9.00016C6.82335 9.00016 6.65378 8.92992 6.52876 8.8049C6.40373 8.67988 6.3335 8.51031 6.3335 8.3335V5.66683C6.3335 5.49002 6.40373 5.32045 6.52876 5.19543C6.65378 5.0704 6.82335 5.00016 7.00016 5.00016C7.5306 5.00016 8.0393 5.21088 8.41438 5.58595C8.78945 5.96102 9.00016 6.46973 9.00016 7.00016C9.00016 7.5306 8.78945 8.0393 8.41438 8.41438C8.0393 8.78945 7.5306 9.00016 7.00016 9.00016ZM7.00016 2.3335C6.82335 2.3335 6.65378 2.26326 6.52876 2.13823C6.40373 2.01321 6.3335 1.84364 6.3335 1.66683V1.00016C6.3335 0.823352 6.40373 0.653782 6.52876 0.528758C6.65378 0.403734 6.82335 0.333496 7.00016 0.333496C7.17697 0.333496 7.34654 0.403734 7.47157 0.528758C7.59659 0.653782 7.66683 0.823352 7.66683 1.00016V1.66683C7.66683 1.84364 7.59659 2.01321 7.47157 2.13823C7.34654 2.26326 7.17697 2.3335 7.00016 2.3335ZM10.7735 3.8935C10.6079 3.886 10.451 3.81707 10.3335 3.70016C10.2093 3.57525 10.1396 3.40629 10.1396 3.23016C10.1396 3.05404 10.2093 2.88507 10.3335 2.76016L10.8068 2.28683C10.8666 2.21704 10.9401 2.16036 11.0228 2.12035C11.1056 2.08033 11.1956 2.05784 11.2875 2.0543C11.3793 2.05075 11.4708 2.06622 11.5564 2.09974C11.6419 2.13325 11.7196 2.18409 11.7846 2.24906C11.8496 2.31403 11.9004 2.39173 11.9339 2.47728C11.9674 2.56283 11.9829 2.65439 11.9794 2.7462C11.9758 2.83801 11.9533 2.9281 11.9133 3.01081C11.8733 3.09352 11.8166 3.16706 11.7468 3.22683L11.2735 3.70016C11.2081 3.76524 11.1299 3.81602 11.0438 3.8493C10.9577 3.88258 10.8657 3.89763 10.7735 3.8935ZM13.0002 7.66683H12.3335C12.1567 7.66683 11.9871 7.59659 11.8621 7.47157C11.7371 7.34654 11.6668 7.17697 11.6668 7.00016C11.6668 6.82335 11.7371 6.65378 11.8621 6.52876C11.9871 6.40373 12.1567 6.3335 12.3335 6.3335H13.0002C13.177 6.3335 13.3465 6.40373 13.4716 6.52876C13.5966 6.65378 13.6668 6.82335 13.6668 7.00016C13.6668 7.17697 13.5966 7.34654 13.4716 7.47157C13.3465 7.59659 13.177 7.66683 13.0002 7.66683ZM11.2402 11.9068C11.0653 11.9061 10.8977 11.8367 10.7735 11.7135L10.3335 11.2402C10.263 11.1135 10.2358 10.9673 10.2559 10.8238C10.2759 10.6803 10.3422 10.5472 10.4447 10.4447C10.5472 10.3422 10.6803 10.2759 10.8238 10.2559C10.9673 10.2358 11.1135 10.263 11.2402 10.3335L11.7135 10.8068C11.8377 10.9317 11.9074 11.1007 11.9074 11.2768C11.9074 11.453 11.8377 11.6219 11.7135 11.7468C11.5824 11.8595 11.4127 11.9169 11.2402 11.9068ZM7.00016 13.6668C6.82335 13.6668 6.65378 13.5966 6.52876 13.4716C6.40373 13.3465 6.3335 13.177 6.3335 13.0002V12.3335C6.3335 12.1567 6.40373 11.9871 6.52876 11.8621C6.65378 11.7371 6.82335 11.6668 7.00016 11.6668C7.17697 11.6668 7.34654 11.7371 7.47157 11.8621C7.59659 11.9871 7.66683 12.1567 7.66683 12.3335V13.0002C7.66683 13.177 7.59659 13.3465 7.47157 13.4716C7.34654 13.5966 7.17697 13.6668 7.00016 13.6668ZM2.76016 11.9068C2.67243 11.9073 2.58545 11.8905 2.50423 11.8573C2.423 11.8242 2.34912 11.7753 2.28683 11.7135C2.16266 11.5886 2.09297 11.4196 2.09297 11.2435C2.09297 11.0674 2.16266 10.8984 2.28683 10.7735L2.76016 10.3335C2.8877 10.2243 3.05175 10.1672 3.21953 10.1737C3.38732 10.1802 3.54648 10.2497 3.66521 10.3685C3.78393 10.4872 3.85349 10.6463 3.85997 10.8141C3.86645 10.9819 3.80938 11.146 3.70016 11.2735L3.22683 11.7468C3.09746 11.8579 2.93045 11.9151 2.76016 11.9068ZM1.66683 7.66683H1.00016C0.823352 7.66683 0.653782 7.59659 0.528758 7.47157C0.403734 7.34654 0.333496 7.17697 0.333496 7.00016C0.333496 6.82335 0.403734 6.65378 0.528758 6.52876C0.653782 6.40373 0.823352 6.3335 1.00016 6.3335H1.66683C1.84364 6.3335 2.01321 6.40373 2.13823 6.52876C2.26326 6.65378 2.3335 6.82335 2.3335 7.00016C2.3335 7.17697 2.26326 7.34654 2.13823 7.47157C2.01321 7.59659 1.84364 7.66683 1.66683 7.66683ZM3.22683 3.8935C3.05194 3.89276 2.88434 3.82333 2.76016 3.70016L2.28683 3.22683C2.17761 3.0993 2.12054 2.93524 2.12702 2.76746C2.1335 2.59968 2.20306 2.44052 2.32179 2.32179C2.44052 2.20306 2.59968 2.1335 2.76746 2.12702C2.93524 2.12054 3.0993 2.17761 3.22683 2.28683L3.70016 2.76016C3.82433 2.88507 3.89402 3.05404 3.89402 3.23016C3.89402 3.40629 3.82433 3.57525 3.70016 3.70016C3.63787 3.76195 3.56399 3.81083 3.48277 3.84401C3.40154 3.87719 3.31457 3.894 3.22683 3.8935Z" fill="white"/>
</svg>
