<svg width="12" height="13" viewBox="0 0 12 13" fill="none" xmlns="http://www.w3.org/2000/svg">
<path d="M6.50514 12.0024C5.20869 12.0024 3.91223 11.5703 2.85586 10.766C1.43936 9.70961 0.575054 8.04102 0.503028 6.25239C0.382986 4.09163 1.5594 1.99089 3.40805 0.874493C4.46442 0.250273 5.64084 -0.0618367 6.87727 0.0101887C7.18938 0.0101887 7.50149 0.262278 7.56152 0.502362C7.68156 0.814472 7.62154 1.12658 7.38145 1.36667C6.39711 2.35101 6.02497 3.7195 6.26506 5.07597C6.69721 7.05667 8.55787 8.41315 10.5986 8.23309C10.9107 8.23309 11.2228 8.35313 11.4029 8.66524C11.5829 8.91733 11.5229 9.28946 11.3428 9.52954C10.4785 10.706 9.18209 11.5703 7.75358 11.8824C7.36945 11.9424 6.9373 12.0024 6.50514 12.0024ZM5.89293 1.30665C5.26871 1.36667 4.65649 1.61876 4.03227 1.99089C2.54375 2.85519 1.67944 4.52378 1.73946 6.19237C1.79949 7.60887 2.48373 8.91733 3.60012 9.78163C4.71651 10.6459 6.13301 10.958 7.50149 10.6459C8.3658 10.4659 9.11006 10.0937 9.72228 9.46952C7.50149 9.28946 5.58082 7.60887 5.02862 5.32806C4.77653 3.95958 5.08864 2.48306 5.89293 1.30665Z" fill="#A7A7A7"/>
</svg>
