<svg width="31" height="30" viewBox="0 0 31 30" fill="none" xmlns="http://www.w3.org/2000/svg">
<path d="M21.9168 26.25H13.5168C11.4918 26.25 9.5543 25.3875 8.2043 23.9L3.7918 19.05C1.6918 16.75 1.6918 13.275 3.7918 10.9625L8.2043 6.1125C9.5543 4.6125 11.4918 3.75 13.5168 3.75H21.9168C25.8793 3.75 29.1043 6.975 29.1043 10.9375V19.0625C29.1043 23.025 25.8793 26.25 21.9168 26.25ZM13.5168 5.625C12.0293 5.625 10.5918 6.2625 9.5918 7.3625L5.1668 12.225C3.7293 13.8125 3.7293 16.2 5.1668 17.7875L9.5793 22.6375C10.5793 23.7375 12.0168 24.375 13.5043 24.375H21.9168C24.8418 24.375 27.2293 21.9875 27.2293 19.0625V10.9375C27.2293 8.0125 24.8418 5.625 21.9168 5.625H13.5168Z" fill="#A7A7A7"/>
<path d="M20.6667 19.0252C20.4292 19.0252 20.1917 18.9377 20.0042 18.7502L13.8292 12.5627C13.4667 12.2002 13.4667 11.6002 13.8292 11.2377C14.1917 10.8752 14.7917 10.8752 15.1542 11.2377L21.3292 17.4252C21.6917 17.7877 21.6917 18.3877 21.3292 18.7502C21.1417 18.9377 20.9042 19.0252 20.6667 19.0252Z" fill="#A7A7A7"/>
<path d="M14.4917 19.0249C14.2542 19.0249 14.0167 18.9374 13.8292 18.7499C13.4667 18.3874 13.4667 17.7874 13.8292 17.4249L20.0042 11.2499C20.3667 10.8874 20.9667 10.8874 21.3292 11.2499C21.6917 11.6124 21.6917 12.2124 21.3292 12.5749L15.1542 18.7499C14.9667 18.9374 14.7292 19.0249 14.4917 19.0249Z" fill="#A7A7A7"/>
</svg>
