<svg width="31" height="30" viewBox="0 0 31 30" fill="none" xmlns="http://www.w3.org/2000/svg">
<g clip-path="url(#clip0_225_9735)">
<path d="M25.9333 6.02C25.6995 6.0208 25.474 5.9333 25.302 5.775C22.5433 3.26 19.0033 1.875 15.3333 1.875C11.6633 1.875 8.12327 3.26 5.36452 5.77625C5.17799 5.92483 4.94195 5.99696 4.70423 5.97802C4.46651 5.95909 4.24486 5.8505 4.0842 5.67427C3.92354 5.49803 3.83587 5.26732 3.83895 5.02886C3.84202 4.79041 3.93562 4.56203 4.10077 4.39C7.20702 1.55875 11.1958 0 15.3333 0C19.4708 0 23.4595 1.55875 26.5658 4.39C26.7055 4.51748 26.8033 4.68423 26.8465 4.86834C26.8897 5.05246 26.8763 5.24534 26.8078 5.42165C26.7394 5.59796 26.6193 5.74945 26.4632 5.85624C26.3071 5.96303 26.1224 6.02011 25.9333 6.02Z" fill="#A7A7A7"/>
<path d="M27.5208 12.1464C27.3668 12.1468 27.2152 12.1091 27.0793 12.0367C26.9434 11.9643 26.8276 11.8595 26.7421 11.7314C24.1396 7.85645 19.8746 5.5427 15.3333 5.5427C10.7921 5.5427 6.52705 7.85645 3.92455 11.7314C3.85594 11.8337 3.76785 11.9215 3.66532 11.9897C3.56279 12.0579 3.44783 12.1053 3.327 12.1291C3.20617 12.1529 3.08183 12.1526 2.96109 12.1284C2.84035 12.1041 2.72557 12.0563 2.6233 11.9877C2.52104 11.9191 2.43328 11.831 2.36506 11.7285C2.29684 11.6259 2.24947 11.511 2.22568 11.3901C2.20188 11.2693 2.20212 11.145 2.22638 11.0242C2.25064 10.9035 2.29844 10.7887 2.36705 10.6864C5.3183 6.2927 10.1658 3.66895 15.3333 3.66895C20.5008 3.66895 25.3483 6.2927 28.2996 10.6877C28.3939 10.8288 28.4482 10.9929 28.4567 11.1625C28.4651 11.332 28.4273 11.5007 28.3473 11.6505C28.2674 11.8002 28.1483 11.9255 28.0027 12.0128C27.8571 12.1002 27.6906 12.1464 27.5208 12.1464Z" fill="#A7A7A7"/>
<path d="M12.372 29.9999C12.2481 30 12.1254 29.9755 12.0111 29.9279C11.8967 29.8803 11.7929 29.8104 11.7058 29.7224C11.5008 29.5161 6.69702 24.6124 6.69702 19.8911C6.69702 14.9911 10.5708 11.0049 15.3333 11.0049C20.0958 11.0049 23.9695 14.9911 23.9695 19.8911C23.9695 20.1398 23.8707 20.3782 23.6949 20.554C23.5191 20.7299 23.2807 20.8286 23.032 20.8286C22.7834 20.8286 22.5449 20.7299 22.3691 20.554C22.1933 20.3782 22.0945 20.1398 22.0945 19.8911C22.0945 16.0249 19.062 12.8799 15.3333 12.8799C11.6045 12.8799 8.57202 16.0249 8.57202 19.8911C8.57202 23.8499 12.9933 28.3574 13.0383 28.4024C13.1686 28.5338 13.2571 28.7009 13.2926 28.8826C13.3281 29.0643 13.309 29.2524 13.2377 29.4232C13.1665 29.5941 13.0462 29.74 12.8922 29.8426C12.7381 29.9453 12.5571 30 12.372 29.9999Z" fill="#A7A7A7"/>
<path d="M18.2946 30.0002C16.0396 30.0002 10.8121 25.7102 10.3058 20.9327C10.1271 19.2439 10.6646 17.5164 11.7421 16.3114C12.6796 15.2639 13.9458 14.6827 15.3071 14.6752H15.3333C16.6608 14.6752 17.9158 15.1964 18.8708 16.1452C19.3645 16.6359 19.7555 17.22 20.0209 17.8634C20.2864 18.5068 20.4211 19.1966 20.4171 19.8927V20.5039C20.4171 22.0102 21.5896 23.2352 23.0321 23.2352C24.4746 23.2352 25.6483 22.0102 25.6483 20.5039V20.2902C25.6483 14.4527 21.4196 9.59642 16.0208 9.23642C13.2058 9.04517 10.5058 10.0177 8.42207 11.9652C6.25957 13.9877 5.01957 16.8777 5.01957 19.8927C5.01609 22.3627 5.84976 24.7611 7.38457 26.6964C7.46139 26.7927 7.5185 26.9032 7.55263 27.0215C7.58676 27.1399 7.59725 27.2638 7.5835 27.3862C7.56974 27.5086 7.53201 27.6271 7.47246 27.7349C7.41292 27.8427 7.33272 27.9377 7.23644 28.0146C7.14017 28.0914 7.0297 28.1485 6.91136 28.1826C6.79301 28.2167 6.6691 28.2272 6.5467 28.2135C6.4243 28.1997 6.30581 28.162 6.19799 28.1024C6.09017 28.0429 5.99514 27.9627 5.91832 27.8664C4.11892 25.5979 3.14079 22.7869 3.14332 19.8914C3.14332 16.3589 4.60082 12.9702 7.13957 10.5952C9.60582 8.28767 12.8033 7.14017 16.1433 7.36392C22.5233 7.79017 27.5221 13.4677 27.5221 20.2889V20.5027C27.5221 23.0427 25.5071 25.1089 23.0308 25.1089C20.5546 25.1089 18.5408 23.0427 18.5408 20.5027V19.8914C18.5408 18.9689 18.1883 18.1114 17.5483 17.4739C17.2584 17.1812 16.9134 16.9488 16.5333 16.7901C16.1531 16.6313 15.7453 16.5494 15.3333 16.5489H15.3158C14.2596 16.5539 13.5483 17.1027 13.1383 17.5614C12.4071 18.3777 12.0446 19.5652 12.1683 20.7352C12.5821 24.6327 17.0608 28.1264 18.2933 28.1264C18.5359 28.1351 18.7656 28.2376 18.9342 28.4122C19.1028 28.5868 19.1971 28.82 19.1972 29.0627C19.1974 29.3054 19.1034 29.5387 18.9351 29.7136C18.7667 29.8884 18.5371 29.9912 18.2946 30.0002Z" fill="#A7A7A7"/>
<path d="M21.7733 28.166C18.4183 28.166 14.3221 24.066 14.3221 19.2798C14.3221 19.0311 14.4209 18.7927 14.5967 18.6169C14.7725 18.4411 15.0109 18.3423 15.2596 18.3423C15.5082 18.3423 15.7467 18.4411 15.9225 18.6169C16.0983 18.7927 16.1971 19.0311 16.1971 19.2798C16.1971 22.9898 19.3158 26.291 21.7733 26.291C22.022 26.291 22.2604 26.3898 22.4362 26.5656C22.6121 26.7414 22.7108 26.9799 22.7108 27.2285C22.7108 27.4772 22.6121 27.7156 22.4362 27.8914C22.2604 28.0673 22.022 28.166 21.7733 28.166Z" fill="#A7A7A7"/>
</g>
<defs>
<clipPath id="clip0_225_9735">
<rect width="30" height="30" fill="white" transform="translate(0.333313)"/>
</clipPath>
</defs>
</svg>
