<svg width="25" height="24" viewBox="0 0 25 24" fill="none" xmlns="http://www.w3.org/2000/svg">
<path d="M22.5 7.80983V16.1898C22.5 19.3998 19.9 21.9998 16.69 21.9998H8.31C5.1 21.9998 2.5 19.3998 2.5 16.1898V7.80983C2.5 5.31983 3.52 3.50983 5.33 2.62983C5.99 2.30983 6.75 2.80983 6.75 3.53983V12.4198C6.75 13.6098 7.21 14.5598 8.04 15.0398C8.88 15.5098 9.94 15.4098 11.02 14.7598L12.32 13.9798C12.4 13.9398 12.6 13.9398 12.66 13.9698L13.98 14.7598C14.7 15.1898 15.32 15.3298 15.82 15.3298C16.34 15.3298 16.74 15.1698 16.98 15.0298C17.79 14.5598 18.25 13.6098 18.25 12.4198V3.53983C18.25 2.80983 19.02 2.30983 19.67 2.62983C21.48 3.50983 22.5 5.31983 22.5 7.80983Z" fill="#426DFF"/>
<path d="M15.75 2C16.3 2 16.75 2.45 16.75 3V12.42C16.75 13.06 16.56 13.54 16.23 13.73C15.89 13.93 15.35 13.83 14.75 13.47L13.43 12.68C12.92 12.37 12.08 12.37 11.57 12.68L10.25 13.47C9.65 13.83 9.11 13.92 8.77 13.73C8.44 13.54 8.25 13.06 8.25 12.42V3C8.25 2.45 8.7 2 9.25 2H15.75Z" fill="#426DFF"/>
</svg>
