<svg width="21" height="20" viewBox="0 0 21 20" fill="none" xmlns="http://www.w3.org/2000/svg">
<path d="M18.0584 4.35866C16.7167 4.22533 15.375 4.12533 14.025 4.05033V4.04199L13.8417 2.95866C13.7167 2.19199 13.5334 1.04199 11.5834 1.04199H9.40005C7.45838 1.04199 7.27505 2.14199 7.14172 2.95033L6.96672 4.01699C6.19172 4.06699 5.41672 4.11699 4.64172 4.19199L2.94172 4.35866C2.59172 4.39199 2.34172 4.70033 2.37505 5.04199C2.40838 5.38366 2.70838 5.63366 3.05838 5.60033L4.75838 5.43366C9.12505 5.00033 13.5251 5.16699 17.9417 5.60866C17.9667 5.60866 17.9834 5.60866 18.0084 5.60866C18.3251 5.60866 18.6 5.36699 18.6334 5.04199C18.6584 4.70033 18.4084 4.39199 18.0584 4.35866Z" fill="#BF3636"/>
<path d="M16.525 6.78301C16.325 6.57467 16.05 6.45801 15.7666 6.45801H5.23329C4.94995 6.45801 4.66662 6.57467 4.47495 6.78301C4.28329 6.99134 4.17495 7.27467 4.19162 7.56634L4.70829 16.1163C4.79995 17.383 4.91662 18.9663 7.82495 18.9663H13.175C16.0833 18.9663 16.2 17.3913 16.2916 16.1163L16.8083 7.57467C16.825 7.27467 16.7166 6.99134 16.525 6.78301ZM11.8833 14.7913H9.10829C8.76662 14.7913 8.48329 14.508 8.48329 14.1663C8.48329 13.8247 8.76662 13.5413 9.10829 13.5413H11.8833C12.225 13.5413 12.5083 13.8247 12.5083 14.1663C12.5083 14.508 12.225 14.7913 11.8833 14.7913ZM12.5833 11.458H8.41662C8.07495 11.458 7.79162 11.1747 7.79162 10.833C7.79162 10.4913 8.07495 10.208 8.41662 10.208H12.5833C12.925 10.208 13.2083 10.4913 13.2083 10.833C13.2083 11.1747 12.925 11.458 12.5833 11.458Z" fill="#BF3636"/>
</svg>
