<svg width="34" height="34" viewBox="0 0 34 34" fill="none" xmlns="http://www.w3.org/2000/svg">
<path d="M0 10C0 5.58172 3.58172 2 8 2H24C28.4183 2 32 5.58172 32 10V26C32 30.4183 28.4183 34 24 34H8C3.58172 34 0 30.4183 0 26V10Z" fill="#F3F3F3"/>
<path d="M16.0167 25.1083C14.075 25.1083 12.1333 24.8 10.2917 24.1833C9.59166 23.9417 9.05833 23.45 8.82499 22.8083C8.58333 22.1667 8.66666 21.4583 9.04999 20.825L10.0083 19.2333C10.2083 18.9 10.3917 18.2333 10.3917 17.8417V15.4333C10.3917 12.3333 12.9167 9.80835 16.0167 9.80835C19.1167 9.80835 21.6417 12.3333 21.6417 15.4333V17.8417C21.6417 18.225 21.825 18.9 22.025 19.2417L22.975 20.825C23.3333 21.425 23.4 22.15 23.1583 22.8083C22.9167 23.4667 22.3917 23.9667 21.7333 24.1833C19.9 24.8 17.9583 25.1083 16.0167 25.1083ZM16.0167 11.0583C13.6083 11.0583 11.6417 13.0167 11.6417 15.4333V17.8417C11.6417 18.45 11.3917 19.35 11.0833 19.875L10.125 21.4667C9.94166 21.775 9.89166 22.1 9.99999 22.375C10.1 22.6583 10.35 22.875 10.6917 22.9917C14.175 24.1583 17.8667 24.1583 21.35 22.9917C21.65 22.8917 21.8833 22.6667 21.9917 22.3667C22.1 22.0667 22.075 21.7417 21.9083 21.4667L20.95 19.875C20.6333 19.3333 20.3917 18.4417 20.3917 17.8333V15.4333C20.3917 13.0167 18.4333 11.0583 16.0167 11.0583Z" fill="#A2A2A2"/>
<path d="M17.5667 11.2834C17.5083 11.2834 17.45 11.2751 17.3917 11.2584C17.15 11.1917 16.9167 11.1417 16.6917 11.1084C15.9833 11.0167 15.3 11.0667 14.6583 11.2584C14.425 11.3334 14.175 11.2584 14.0167 11.0834C13.8583 10.9084 13.8083 10.6584 13.9 10.4334C14.2417 9.5584 15.075 8.9834 16.025 8.9834C16.975 8.9834 17.8083 9.55007 18.15 10.4334C18.2333 10.6584 18.1917 10.9084 18.0333 11.0834C17.9083 11.2167 17.7333 11.2834 17.5667 11.2834Z" fill="#A2A2A2"/>
<path d="M16.0167 27.0083C15.1917 27.0083 14.3917 26.675 13.8083 26.0916C13.225 25.5083 12.8917 24.7083 12.8917 23.8833H14.1417C14.1417 24.375 14.3417 24.8583 14.6917 25.2083C15.0417 25.5583 15.525 25.7583 16.0167 25.7583C17.05 25.7583 17.8917 24.9166 17.8917 23.8833H19.1417C19.1417 25.6083 17.7417 27.0083 16.0167 27.0083Z" fill="#A2A2A2"/>
<path d="M28 1C25.2386 1 23 3.23858 23 6C23 8.76142 25.2386 11 28 11C30.7614 11 33 8.76142 33 6C33 3.23858 30.7614 1 28 1Z" fill="#EF4444"/>
<path d="M28 1C25.2386 1 23 3.23858 23 6C23 8.76142 25.2386 11 28 11C30.7614 11 33 8.76142 33 6C33 3.23858 30.7614 1 28 1Z" stroke="white" stroke-width="2"/>
</svg>
