<svg width="16" height="16" viewBox="0 0 16 16" fill="none" xmlns="http://www.w3.org/2000/svg">
<g opacity="0.5">
<path d="M3.6177 12.3795C3.81337 12.5751 4.06121 12.6663 4.30906 12.6663C4.55691 12.6663 4.81779 12.5751 5.00042 12.3795L8.00065 9.38028L11.0009 12.3795C11.1966 12.5751 11.4444 12.6663 11.6922 12.6663C11.9401 12.6663 12.1879 12.5751 12.3836 12.3795C12.7619 12.0013 12.7619 11.3754 12.3836 10.9972L9.38337 7.99804L12.3836 4.99886C12.7619 4.6207 12.7619 3.99478 12.3836 3.61663C12.0053 3.23847 11.3792 3.23847 11.0009 3.61663L8.00065 6.61581L5.00042 3.61663C4.62213 3.23847 3.99599 3.23847 3.6177 3.61663C3.23941 3.99478 3.23941 4.6207 3.6177 4.99886L6.61794 7.99804L3.6177 10.9972C3.23941 11.3754 3.23941 12.0013 3.6177 12.3795Z" fill="white"/>
</g>
</svg>
