<svg width="20" height="20" viewBox="0 0 20 20" fill="none" xmlns="http://www.w3.org/2000/svg">
<path d="M13.4917 1.66675H6.50834C3.475 1.66675 1.66667 3.47508 1.66667 6.50841V13.4834C1.66667 16.5251 3.475 18.3334 6.50834 18.3334H13.4833C16.5167 18.3334 18.325 16.5251 18.325 13.4917V6.50841C18.3333 3.47508 16.525 1.66675 13.4917 1.66675ZM15 10.6251H10.625V15.0001C10.625 15.3417 10.3417 15.6251 10 15.6251C9.65834 15.6251 9.375 15.3417 9.375 15.0001V10.6251H5.00001C4.65834 10.6251 4.37501 10.3417 4.37501 10.0001C4.37501 9.65842 4.65834 9.37508 5.00001 9.37508H9.375V5.00008C9.375 4.65841 9.65834 4.37508 10 4.37508C10.3417 4.37508 10.625 4.65841 10.625 5.00008V9.37508H15C15.3417 9.37508 15.625 9.65842 15.625 10.0001C15.625 10.3417 15.3417 10.6251 15 10.6251Z" fill="white"/>
</svg>
