<svg width="24" height="24" viewBox="0 0 24 24" fill="none" xmlns="http://www.w3.org/2000/svg">
<path d="M17.7412 8.80989C19.325 8.80989 20.6089 7.48466 20.6089 5.84989C20.6089 4.21513 19.325 2.88989 17.7412 2.88989C16.1574 2.88989 14.8735 4.21513 14.8735 5.84989C14.8735 7.48466 16.1574 8.80989 17.7412 8.80989Z" fill="#A7A7A7"/>
<path d="M7.00683 8.80989C8.59061 8.80989 9.87451 7.48466 9.87451 5.84989C9.87451 4.21513 8.59061 2.88989 7.00683 2.88989C5.42306 2.88989 4.13916 4.21513 4.13916 5.84989C4.13916 7.48466 5.42306 8.80989 7.00683 8.80989Z" fill="#A7A7A7"/>
<path d="M17.7412 21.1099C19.325 21.1099 20.6089 19.7847 20.6089 18.1499C20.6089 16.5152 19.325 15.1899 17.7412 15.1899C16.1574 15.1899 14.8735 16.5152 14.8735 18.1499C14.8735 19.7847 16.1574 21.1099 17.7412 21.1099Z" fill="#A7A7A7"/>
<path d="M7.00683 21.1099C8.59061 21.1099 9.87451 19.7847 9.87451 18.1499C9.87451 16.5152 8.59061 15.1899 7.00683 15.1899C5.42306 15.1899 4.13916 16.5152 4.13916 18.1499C4.13916 19.7847 5.42306 21.1099 7.00683 21.1099Z" fill="#A7A7A7"/>
</svg>
