<svg width="20" height="20" viewBox="0 0 20 20" fill="none" xmlns="http://www.w3.org/2000/svg">
<path d="M13.4915 1.66699H6.50817C3.47484 1.66699 1.6665 3.47533 1.6665 6.50866V13.4837C1.6665 16.5253 3.47484 18.3337 6.50817 18.3337H13.4832C16.5165 18.3337 18.3248 16.5253 18.3248 13.492V6.50866C18.3332 3.47533 16.5248 1.66699 13.4915 1.66699ZM9.12484 14.592C8.88317 14.8337 8.42484 15.067 8.0915 15.117L6.0415 15.4087C5.9665 15.417 5.8915 15.4253 5.8165 15.4253C5.47484 15.4253 5.15817 15.3087 4.93317 15.0837C4.65817 14.8087 4.5415 14.4087 4.60817 13.967L4.89984 11.917C4.94984 11.5753 5.17484 11.1253 5.42484 10.8837L9.1415 7.16699C9.20817 7.34199 9.27484 7.51699 9.3665 7.71699C9.44984 7.89199 9.5415 8.07533 9.6415 8.24199C9.72484 8.38366 9.8165 8.51699 9.8915 8.61699C9.98317 8.75866 10.0915 8.89199 10.1582 8.96699C10.1998 9.02533 10.2332 9.06699 10.2498 9.08366C10.4582 9.33366 10.6998 9.56699 10.9082 9.74199C10.9665 9.80033 10.9998 9.83366 11.0165 9.84199C11.1415 9.94199 11.2665 10.042 11.3748 10.117C11.5082 10.217 11.6415 10.3087 11.7832 10.3837C11.9498 10.4837 12.1332 10.5753 12.3165 10.667C12.5082 10.7503 12.6832 10.8253 12.8582 10.8837L9.12484 14.592ZM14.4748 9.24199L13.7082 10.017C13.6582 10.067 13.5915 10.092 13.5248 10.092C13.4998 10.092 13.4665 10.092 13.4498 10.0837C11.7582 9.60033 10.4082 8.25033 9.92484 6.55866C9.89984 6.46699 9.92484 6.36699 9.9915 6.30866L10.7665 5.53366C12.0332 4.26699 13.2415 4.29199 14.4832 5.53366C15.1165 6.16699 15.4248 6.77533 15.4248 7.40866C15.4165 8.00866 15.1082 8.60866 14.4748 9.24199Z" fill="#1C1C1C"/>
</svg>
