<svg width="22" height="28" viewBox="0 0 22 28" fill="none" xmlns="http://www.w3.org/2000/svg">
<path d="M9.7954 20.8805L5.59835 19.4815L4.36799 19.4746L2.21587 25.6579C2.14729 25.8548 2.30687 26.0562 2.5143 26.0344L5.53103 25.7186C5.57265 25.7142 5.61471 25.7191 5.65423 25.7328C5.69375 25.7466 5.72975 25.7689 5.75968 25.7981L7.92831 27.9189C8.07739 28.0646 8.32753 28.0059 8.39605 27.8089L10.5623 21.5852L9.7954 20.8805Z" fill="#0083FD"/>
<path d="M10.5623 21.5851L11 20.3276L4.80445 18.2207L4.36804 19.4745C6.12734 20.7299 8.25753 21.4983 10.5623 21.5851Z" fill="#0072FC"/>
<path d="M12.2046 20.8805L16.4017 19.4815L17.632 19.4746L19.7842 25.6579C19.8528 25.8548 19.6932 26.0563 19.4858 26.0345L16.469 25.7186C16.4274 25.7143 16.3854 25.7191 16.3458 25.7329C16.3063 25.7466 16.2703 25.7689 16.2404 25.7982L14.0718 27.9189C13.9227 28.0647 13.6726 28.0059 13.6041 27.809L11.4378 21.5853L12.2046 20.8805Z" fill="#0083FD"/>
<path d="M11.4377 21.5851L11 20.3276L17.1955 18.2207L17.632 19.4745C15.8727 20.7299 13.7425 21.4983 11.4377 21.5851Z" fill="#0072FC"/>
<path d="M11 19.4745C0.848896 19.4745 0.840474 9.82122 0.848896 9.65152C1.11572 4.27623 5.55847 0 11 0C16.4415 0 20.8843 4.27623 21.1511 9.65152C21.1595 9.82122 21.1511 19.4745 11 19.4745Z" fill="#FF9838"/>
<path d="M11 19.3028C5.55848 19.3028 1.11588 15.0266 0.849009 9.65137C0.84051 9.82199 0.836243 9.99279 0.836212 10.1636C0.836212 15.7769 5.3867 20.3274 11 20.3274C16.6133 20.3274 21.1638 15.7769 21.1638 10.1636C21.1638 9.99185 21.1594 9.82106 21.151 9.65137C20.8841 15.0266 16.4415 19.3028 11 19.3028Z" fill="#FF8709"/>
<path d="M19.0069 10.1636C19.0069 13.5922 15.4221 17.6784 11 17.6784C6.57789 17.6784 2.99307 13.3674 2.99307 10.1636C2.99307 9.99154 2.99849 9.82075 3.00921 9.65133C3.27335 5.46796 6.74999 2.15674 11 2.15674C15.25 2.15674 18.7266 5.46796 18.9908 9.65133C19.0015 9.82075 19.0069 9.99154 19.0069 10.1636Z" fill="#CE7430"/>
<path d="M11 17.146C6.75005 17.146 3.27406 13.8346 3.00986 9.65137C2.99887 9.8219 2.99327 9.99274 2.99307 10.1636C2.99307 14.5857 6.57789 18.1705 11 18.1705C15.4221 18.1705 19.0069 14.5857 19.0069 10.1636C19.0069 9.99147 19.0008 9.82079 18.9901 9.65137C18.7259 13.8346 15.2499 17.146 11 17.146Z" fill="#BC672E"/>
<path d="M11.0101 14.9197C9.28565 14.9197 8.1884 13.731 7.9772 12.3206C7.958 12.1923 7.95193 11.9169 7.95193 11.9169C8.09877 11.5428 8.4631 11.2779 8.88928 11.2779C9.44517 11.2779 9.89585 11.7286 9.89585 12.2845C9.89585 12.8989 10.3957 13.3988 11.0101 13.3988C11.6245 13.3988 12.1244 12.8989 12.1244 12.2845C12.1246 12.106 12.0817 11.9302 11.9994 11.7719C11.9994 11.7719 11.9238 10.8227 11.064 10.8227C10.2016 10.8227 10.1439 9.65086 10.1439 9.65086C10.3192 9.35528 10.6416 9.15715 11.0102 9.15715C11.6246 9.15715 12.1245 8.6573 12.1245 8.04289C12.1245 7.42847 11.6246 6.92863 11.0102 6.92863C10.3958 6.92863 9.89591 7.42847 9.89591 8.04289C9.89591 8.59884 9.44523 9.04946 8.88933 9.04946C8.33343 9.04946 7.88275 8.59884 7.88275 8.04289C7.88275 6.31848 9.2857 4.91553 11.0101 4.91553C12.7346 4.91553 14.1375 6.31848 14.1375 8.04289C14.1375 8.86057 13.8222 9.60586 13.3066 10.1637C13.7123 10.6026 13.994 11.1576 14.0957 11.7726C14.0957 11.7726 14.0988 12.1101 14.0695 12.282C13.82 13.7488 12.7346 14.9197 11.0101 14.9197Z" fill="#FFAA5C"/>
<path d="M11.0101 10.1456C10.6415 10.1456 10.3201 9.9469 10.1448 9.65137C10.0524 9.80626 10.0036 9.98326 10.0036 10.1636C10.0036 10.7196 10.4542 11.1702 11.0102 11.1702C11.4398 11.1702 11.8128 11.4151 11.9986 11.7723C12.0813 11.6141 12.1244 11.4384 12.1245 11.26C12.1244 10.6455 11.6245 10.1456 11.0101 10.1456ZM11.0101 14.3873C9.51117 14.3873 8.25566 13.3271 7.9528 11.9173C7.90661 12.0342 7.88283 12.1588 7.88269 12.2845C7.88269 14.009 9.28564 15.4119 11.0101 15.4119C12.7346 15.4119 14.1375 14.009 14.1375 12.2845C14.1375 12.1101 14.1224 11.9393 14.0948 11.7726C13.8494 13.2539 12.5599 14.3873 11.0101 14.3873Z" fill="#EA9957"/>
</svg>
