<svg width="22" height="28" viewBox="0 0 22 28" fill="none" xmlns="http://www.w3.org/2000/svg">
<path d="M5.47809 19.4204L4.36804 19.4746L2.21587 25.6578C2.14729 25.8548 2.30687 26.0562 2.5143 26.0344L5.53103 25.7186C5.57265 25.7142 5.61471 25.7191 5.65423 25.7328C5.69375 25.7466 5.72975 25.7689 5.75968 25.7981L7.92831 27.9188C8.07739 28.0646 8.32753 28.0059 8.39605 27.8089L10.5623 21.5852L9.92353 20.9653L5.47809 19.4204Z" fill="#FF4755"/>
<path d="M10.5623 21.5851L11 20.3276L4.80445 18.2207L4.36804 19.4745C6.12734 20.7299 8.25753 21.4983 10.5623 21.5851Z" fill="#FC2B3A"/>
<path d="M16.5219 19.4204L17.632 19.4746L19.7841 25.6578C19.8527 25.8548 19.6931 26.0562 19.4857 26.0344L16.469 25.7186C16.4274 25.7142 16.3853 25.7191 16.3458 25.7328C16.3063 25.7466 16.2703 25.7689 16.2404 25.7981L14.0717 27.9188C13.9227 28.0646 13.6725 28.0059 13.604 27.8089L11.4378 21.5852L12.0765 20.9653L16.5219 19.4204Z" fill="#FF4755"/>
<path d="M11.4377 21.5851L11 20.3276L17.1955 18.2207L17.632 19.4745C15.8727 20.7299 13.7425 21.4983 11.4377 21.5851Z" fill="#FC2B3A"/>
<path d="M11 19.6938C0.836206 19.6938 0.840472 9.82116 0.848894 9.65147C1.11571 4.27623 5.55847 0 11 0C16.4415 0 20.8843 4.27623 21.1511 9.65152C21.1595 9.82122 21.1638 19.6938 11 19.6938Z" fill="#FFE27A"/>
<path d="M11 19.3029C5.55848 19.3029 1.11588 15.0267 0.849009 9.65137C0.84051 9.82199 0.836243 9.99279 0.836212 10.1636C0.836212 15.7769 5.3867 20.3274 11 20.3274C16.6133 20.3274 21.1638 15.7769 21.1638 10.1636C21.1638 9.9918 21.1594 9.82106 21.151 9.65137C20.8841 15.0267 16.4415 19.3029 11 19.3029Z" fill="#F9CF58"/>
<path d="M11 17.507C3.00922 17.507 2.9985 9.64937 3.00922 9.47994C3.27342 5.29657 6.75001 1.98535 11 1.98535C15.25 1.98535 18.7266 5.29657 18.9908 9.47994C19.0015 9.64931 18.9908 17.507 11 17.507Z" fill="#FFBA57"/>
<path d="M11 17.146C6.75006 17.146 3.27407 13.8347 3.00988 9.65137C2.99888 9.8219 2.99329 9.99274 2.99309 10.1636C2.99309 14.5857 6.57791 18.1705 11 18.1705C15.4221 18.1705 19.0069 14.5857 19.0069 10.1636C19.0069 9.99147 19.0008 9.82079 18.9901 9.65137C18.7259 13.8347 15.2499 17.146 11 17.146Z" fill="#FFAC3E"/>
<path d="M11.4566 14.9198C10.9007 14.9198 10.4501 14.4692 10.4501 13.9133V8.27219C10.4501 8.27219 9.84778 8.87621 9.12717 8.5138C8.56531 8.23123 8.56531 7.50394 8.56531 7.50394L9.80633 5.40908C9.89542 5.25871 10.0221 5.13412 10.174 5.04758C10.3258 4.96104 10.4976 4.91553 10.6724 4.91553H11.4566C12.0125 4.91553 12.4632 5.36615 12.4632 5.92211V13.9133C12.4632 14.4692 12.0125 14.9198 11.4566 14.9198Z" fill="#FFE27A"/>
<path d="M10.3117 7.48143C10.0446 7.93244 9.47656 8.128 9.0028 7.90351C8.82009 7.81766 8.66751 7.67873 8.56497 7.50484C8.28547 7.97767 8.43679 8.58596 8.90218 8.87334C9.38211 9.16975 10.0234 8.99278 10.3109 8.50743L10.4501 8.27232V7.51922C10.4501 7.44364 10.3503 7.41636 10.3117 7.48143ZM11.4566 14.3876C10.9007 14.3876 10.4501 13.937 10.4501 13.3811V14.4056C10.4501 14.9616 10.9007 15.4122 11.4566 15.4122C12.0125 15.4122 12.4632 14.9616 12.4632 14.4056V13.3811C12.4632 13.937 12.0125 14.3876 11.4566 14.3876Z" fill="#F9CF58"/>
</svg>
