<svg width="22" height="28" viewBox="0 0 22 28" fill="none" xmlns="http://www.w3.org/2000/svg">
<path d="M9.87716 20.9339L5.3638 19.373L4.36799 19.4745L2.21588 25.6578C2.1473 25.8547 2.30688 26.0561 2.5143 26.0344L5.53103 25.7185C5.57265 25.7141 5.61471 25.719 5.65423 25.7328C5.69375 25.7465 5.72976 25.7688 5.75968 25.7981L7.92831 27.9188C8.07739 28.0646 8.32753 28.0058 8.39605 27.8089L10.5623 21.5852L9.87716 20.9339Z" fill="#98DB7C"/>
<path d="M10.5623 21.5851L11 20.3276L4.80446 18.2207L4.36805 19.4745C6.12735 20.7299 8.25753 21.4983 10.5623 21.5851Z" fill="#82D361"/>
<path d="M12.1228 20.9339L16.6362 19.373L17.632 19.4745L19.7842 25.6578C19.8527 25.8547 19.6932 26.0561 19.4857 26.0344L16.469 25.7185C16.4274 25.7141 16.3854 25.719 16.3458 25.7328C16.3063 25.7465 16.2703 25.7688 16.2404 25.7981L14.0718 27.9188C13.9227 28.0646 13.6726 28.0058 13.6041 27.8089L11.4378 21.5852L12.1228 20.9339Z" fill="#98DB7C"/>
<path d="M11.4377 21.5851L11 20.3276L17.1955 18.2207L17.632 19.4745C15.8727 20.7299 13.7425 21.4983 11.4377 21.5851Z" fill="#82D361"/>
<path d="M11 19.6568C0.848908 19.6568 0.840485 9.82122 0.848907 9.65152C1.11573 4.27623 5.55849 0 11 0C16.4379 0 20.8784 4.27055 21.1505 9.64075C21.1594 9.814 21.1505 19.6568 11 19.6568Z" fill="#E0E0E0"/>
<path d="M11 19.3029C5.55848 19.3029 1.11589 15.0267 0.849017 9.65137C0.840517 9.82199 0.83625 9.99279 0.83622 10.1636C0.83622 15.7769 5.38671 20.3274 11 20.3274C16.6133 20.3274 21.1638 15.7769 21.1638 10.1636C21.1638 9.9918 21.1594 9.82106 21.151 9.65137C20.8841 15.0267 16.4415 19.3029 11 19.3029Z" fill="#CECECE"/>
<path d="M11 17.5343C2.99309 17.5343 2.99851 9.82075 3.00923 9.65133C3.27342 5.46796 6.75002 2.15674 11 2.15674C15.25 2.15674 18.7266 5.46796 18.9908 9.65133C19.0015 9.82075 18.9908 17.5343 11 17.5343Z" fill="#9E9E9E"/>
<path d="M11 17.146C6.75007 17.146 3.27408 13.8346 3.00988 9.65137C2.99889 9.8219 2.99329 9.99274 2.9931 10.1636C2.9931 14.5857 6.57792 18.1705 11 18.1705C15.4221 18.1705 19.0069 14.5857 19.0069 10.1636C19.0069 9.99147 19.0008 9.82079 18.9901 9.65137C18.7259 13.8346 15.2499 17.146 11 17.146Z" fill="#898989"/>
<path d="M13.3049 14.9198H8.71538C8.15948 14.9198 7.73024 13.9521 7.77207 13.731C7.88884 13.1131 8.16355 12.536 8.56947 12.0559L11.7987 8.23932C12.1009 7.88221 11.9661 7.49743 11.9175 7.38795C11.8585 7.25489 11.675 6.94378 11.2476 6.92934C11.2349 6.9289 11.2222 6.92868 11.2095 6.92868C10.6091 6.92868 10.1207 7.41715 10.1207 8.01757C10.1207 8.57346 9.67 9.02414 9.1141 9.02414C8.55821 9.02414 8.10753 8.57352 8.10753 8.01757C8.10753 6.30716 9.49905 4.91553 11.2095 4.91553C11.2449 4.91553 11.2801 4.91613 11.3152 4.91733C12.3854 4.95343 13.3212 5.58747 13.7578 6.5719C14.2009 7.57104 14.039 8.70821 13.3355 9.53968L10.1063 13.3562C10.0944 13.3703 10.0828 13.3845 10.0714 13.3989H13.3049C13.6735 13.3989 13.9958 13.5971 14.1712 13.8926C14.2603 14.0428 13.8608 14.9198 13.3049 14.9198Z" fill="#E0E0E0"/>
<path d="M13.3049 14.3873H8.71538C8.2828 14.3873 7.91502 14.1139 7.77267 13.731C7.7304 13.9533 7.70902 14.179 7.7088 14.4053C7.7088 14.9613 8.15948 15.4119 8.71538 15.4119H13.3049C13.8608 15.4119 14.3114 14.9613 14.3114 14.4053C14.3114 14.218 14.2593 14.0432 14.1702 13.8931C13.9949 14.1886 13.6735 14.3873 13.3049 14.3873Z" fill="#CECECE"/>
</svg>
