<svg width="24" height="24" viewBox="0 0 24 24" fill="none" xmlns="http://www.w3.org/2000/svg">
<path fill-rule="evenodd" clip-rule="evenodd" d="M10.6668 7.33362C10.6668 6.59708 11.2639 6 12.0004 6C12.7369 6 13.334 6.59708 13.334 7.33362C13.334 8.07016 12.7369 8.66725 12.0004 8.66725C11.2639 8.66725 10.6668 8.07016 10.6668 7.33362ZM10.6668 11.9997C10.6668 11.2632 11.2639 10.6661 12.0004 10.6661C12.7369 10.6661 13.334 11.2632 13.334 11.9997C13.334 12.7363 12.7369 13.3334 12.0004 13.3334C11.2639 13.3334 10.6668 12.7363 10.6668 11.9997ZM12.0004 15.3335C11.2639 15.3335 10.6668 15.9306 10.6668 16.6672C10.6668 17.4037 11.2639 18.0008 12.0004 18.0008C12.7369 18.0008 13.334 17.4037 13.334 16.6672C13.334 15.9306 12.7369 15.3335 12.0004 15.3335Z" fill="#A2A2A2"/>
</svg>
