<svg width="48" height="72" viewBox="0 0 48 72" fill="none" xmlns="http://www.w3.org/2000/svg">
<path d="M42.12 23.6399L41.8 23.2C41.24 22.52 40.58 21.98 39.82 21.58C38.8 21 37.64 20.7 36.44 20.7H11.54C10.34 20.7 9.2 21 8.16 21.58C7.38 22 6.68 22.5799 6.1 23.2999C4.96 24.7599 4.42 26.56 4.6 28.36L5.34 37.7C5.6 40.52 5.94 44 12.28 44H35.72C42.06 44 42.38 40.52 42.66 37.68L43.4 28.3799C43.58 26.6999 43.14 25.0199 42.12 23.6399ZM28.78 34.68H19.2C18.42 34.68 17.8 34.0399 17.8 33.2799C17.8 32.5199 18.42 31.8799 19.2 31.8799H28.78C29.56 31.8799 30.18 32.5199 30.18 33.2799C30.18 34.0599 29.56 34.68 28.78 34.68Z" fill="#A7A7A7"/>
<path opacity="0.4" d="M6.75999 22.62C7.19999 22.22 7.63999 21.86 8.15999 21.58C9.17999 21 10.34 20.7 11.54 20.7H36.46C37.66 20.7 38.8 21 39.84 21.58C40.36 21.86 40.82 22.22 41.24 22.64V21.58V19.64C41.24 12.5 39.06 10.32 31.92 10.32H27.16C26.28 10.32 26.26 10.3 25.74 9.62L23.34 6.4C22.2 4.92 21.3 4 18.44 4H16.08C8.93999 4 6.75999 6.18 6.75999 13.32V21.6V22.62Z" fill="#A7A7A7"/>
<path d="M11.6109 62.1185V70H11.0774C10.9931 70 10.9216 69.9853 10.8629 69.956C10.8079 69.9267 10.7529 69.8772 10.6979 69.8075L6.13841 63.8675C6.14574 63.9592 6.15124 64.049 6.15491 64.137C6.15857 64.225 6.16041 64.3075 6.16041 64.3845V70H5.22541V62.1185H5.77541C5.82307 62.1185 5.86341 62.1222 5.89641 62.1295C5.92941 62.1332 5.95874 62.1423 5.98441 62.157C6.01007 62.168 6.03574 62.1863 6.06141 62.212C6.08707 62.234 6.11457 62.2633 6.14391 62.3L10.7034 68.2345C10.6961 68.1392 10.6887 68.0475 10.6814 67.9595C10.6777 67.8678 10.6759 67.7817 10.6759 67.701V62.1185H11.6109ZM15.7914 64.3405C16.1984 64.3405 16.5651 64.4083 16.8914 64.544C17.2178 64.6797 17.4964 64.8722 17.7274 65.1215C17.9584 65.3708 18.1344 65.6733 18.2554 66.029C18.3801 66.381 18.4424 66.7752 18.4424 67.2115C18.4424 67.6515 18.3801 68.0475 18.2554 68.3995C18.1344 68.7515 17.9584 69.0522 17.7274 69.3015C17.4964 69.5508 17.2178 69.7433 16.8914 69.879C16.5651 70.011 16.1984 70.077 15.7914 70.077C15.3808 70.077 15.0104 70.011 14.6804 69.879C14.3541 69.7433 14.0754 69.5508 13.8444 69.3015C13.6134 69.0522 13.4356 68.7515 13.3109 68.3995C13.1899 68.0475 13.1294 67.6515 13.1294 67.2115C13.1294 66.7752 13.1899 66.381 13.3109 66.029C13.4356 65.6733 13.6134 65.3708 13.8444 65.1215C14.0754 64.8722 14.3541 64.6797 14.6804 64.544C15.0104 64.4083 15.3808 64.3405 15.7914 64.3405ZM15.7914 69.3125C16.3414 69.3125 16.7521 69.1292 17.0234 68.7625C17.2948 68.3922 17.4304 67.877 17.4304 67.217C17.4304 66.5533 17.2948 66.0363 17.0234 65.666C16.7521 65.2957 16.3414 65.1105 15.7914 65.1105C15.5128 65.1105 15.2689 65.1582 15.0599 65.2535C14.8546 65.3488 14.6823 65.4863 14.5429 65.666C14.4073 65.8457 14.3046 66.0675 14.2349 66.3315C14.1689 66.5918 14.1359 66.887 14.1359 67.217C14.1359 67.877 14.2716 68.3922 14.5429 68.7625C14.8179 69.1292 15.2341 69.3125 15.7914 69.3125ZM26.5686 65.754C26.3853 65.5083 26.1873 65.3378 25.9746 65.2425C25.7619 65.1435 25.5236 65.094 25.2596 65.094C24.7426 65.094 24.3448 65.2792 24.0661 65.6495C23.7874 66.0198 23.6481 66.5478 23.6481 67.2335C23.6481 67.5965 23.6793 67.9082 23.7416 68.1685C23.8039 68.4252 23.8956 68.6378 24.0166 68.8065C24.1376 68.9715 24.2861 69.0925 24.4621 69.1695C24.6381 69.2465 24.8379 69.285 25.0616 69.285C25.3843 69.285 25.6648 69.2117 25.9031 69.065C26.1451 68.9183 26.3669 68.7112 26.5686 68.4435V65.754ZM27.5476 61.8985V70H26.9646C26.8253 70 26.7373 69.9322 26.7006 69.7965L26.6126 69.12C26.3743 69.406 26.1029 69.637 25.7986 69.813C25.4943 69.989 25.1423 70.077 24.7426 70.077C24.4236 70.077 24.1339 70.0165 23.8736 69.8955C23.6133 69.7708 23.3914 69.5893 23.2081 69.351C23.0248 69.1127 22.8836 68.8157 22.7846 68.46C22.6856 68.1043 22.6361 67.6955 22.6361 67.2335C22.6361 66.8228 22.6911 66.4415 22.8011 66.0895C22.9111 65.7338 23.0688 65.4258 23.2741 65.1655C23.4794 64.9052 23.7306 64.7017 24.0276 64.555C24.3283 64.4047 24.6656 64.3295 25.0396 64.3295C25.3806 64.3295 25.6721 64.3882 25.9141 64.5055C26.1598 64.6192 26.3779 64.7787 26.5686 64.984V61.8985H27.5476ZM32.3334 67.492C31.8824 67.5067 31.4974 67.5433 31.1784 67.602C30.863 67.657 30.6045 67.7303 30.4029 67.822C30.2049 67.9137 30.06 68.0218 29.9684 68.1465C29.8804 68.2712 29.8364 68.4105 29.8364 68.5645C29.8364 68.7112 29.8602 68.8377 29.9079 68.944C29.9555 69.0503 30.0197 69.1383 30.1004 69.208C30.1847 69.274 30.2819 69.3235 30.3919 69.3565C30.5055 69.3858 30.6265 69.4005 30.7549 69.4005C30.9272 69.4005 31.0849 69.384 31.2279 69.351C31.3709 69.3143 31.5047 69.263 31.6294 69.197C31.7577 69.131 31.8787 69.0522 31.9924 68.9605C32.1097 68.8688 32.2234 68.7643 32.3334 68.647V67.492ZM29.1709 65.215C29.4789 64.918 29.8107 64.6962 30.1664 64.5495C30.522 64.4028 30.9162 64.3295 31.3489 64.3295C31.6605 64.3295 31.9374 64.3808 32.1794 64.4835C32.4214 64.5862 32.6249 64.7292 32.7899 64.9125C32.9549 65.0958 33.0795 65.3177 33.1639 65.578C33.2482 65.8383 33.2904 66.1243 33.2904 66.436V70H32.8559C32.7605 70 32.6872 69.9853 32.6359 69.956C32.5845 69.923 32.5442 69.8607 32.5149 69.769L32.4049 69.241C32.2582 69.3767 32.1152 69.4977 31.9759 69.604C31.8365 69.7067 31.6899 69.7947 31.5359 69.868C31.3819 69.9377 31.2169 69.9908 31.0409 70.0275C30.8685 70.0678 30.676 70.088 30.4634 70.088C30.247 70.088 30.0435 70.0587 29.8529 70C29.6622 69.9377 29.4954 69.846 29.3524 69.725C29.213 69.604 29.1012 69.4518 29.0169 69.2685C28.9362 69.0815 28.8959 68.8615 28.8959 68.6085C28.8959 68.3885 28.9564 68.1777 29.0774 67.976C29.1984 67.7707 29.3945 67.5892 29.6659 67.4315C29.9372 67.2738 30.291 67.1455 30.7274 67.0465C31.1637 66.9438 31.699 66.8852 32.3334 66.8705V66.436C32.3334 66.0033 32.2399 65.677 32.0529 65.457C31.8659 65.2333 31.5927 65.1215 31.2334 65.1215C30.9914 65.1215 30.7879 65.1527 30.6229 65.215C30.4615 65.2737 30.3204 65.3415 30.1994 65.4185C30.082 65.4918 29.9794 65.5597 29.8914 65.622C29.807 65.6807 29.7227 65.71 29.6384 65.71C29.5724 65.71 29.5155 65.6935 29.4679 65.6605C29.4202 65.6238 29.3799 65.5798 29.3469 65.5285L29.1709 65.215ZM36.6369 70.088C36.1969 70.088 35.8578 69.9652 35.6194 69.7195C35.3848 69.4738 35.2674 69.12 35.2674 68.658V65.248H34.5964C34.5378 65.248 34.4883 65.2315 34.4479 65.1985C34.4076 65.1618 34.3874 65.1068 34.3874 65.0335V64.643L35.3004 64.5275L35.5259 62.806C35.5369 62.751 35.5608 62.707 35.5974 62.674C35.6378 62.6373 35.6891 62.619 35.7514 62.619H36.2464V64.5385H37.8579V65.248H36.2464V68.592C36.2464 68.8267 36.3033 69.0008 36.4169 69.1145C36.5306 69.2282 36.6773 69.285 36.8569 69.285C36.9596 69.285 37.0476 69.2722 37.1209 69.2465C37.1979 69.2172 37.2639 69.186 37.3189 69.153C37.3739 69.12 37.4198 69.0907 37.4564 69.065C37.4968 69.0357 37.5316 69.021 37.5609 69.021C37.6123 69.021 37.6581 69.0522 37.6984 69.1145L37.9844 69.582C37.8158 69.7397 37.6123 69.8643 37.3739 69.956C37.1356 70.044 36.8899 70.088 36.6369 70.088ZM42.1083 67.492C41.6573 67.5067 41.2723 67.5433 40.9533 67.602C40.638 67.657 40.3795 67.7303 40.1778 67.822C39.9798 67.9137 39.835 68.0218 39.7433 68.1465C39.6553 68.2712 39.6113 68.4105 39.6113 68.5645C39.6113 68.7112 39.6352 68.8377 39.6828 68.944C39.7305 69.0503 39.7947 69.1383 39.8753 69.208C39.9597 69.274 40.0568 69.3235 40.1668 69.3565C40.2805 69.3858 40.4015 69.4005 40.5298 69.4005C40.7022 69.4005 40.8598 69.384 41.0028 69.351C41.1458 69.3143 41.2797 69.263 41.4043 69.197C41.5327 69.131 41.6537 69.0522 41.7673 68.9605C41.8847 68.8688 41.9983 68.7643 42.1083 68.647V67.492ZM38.9458 65.215C39.2538 64.918 39.5857 64.6962 39.9413 64.5495C40.297 64.4028 40.6912 64.3295 41.1238 64.3295C41.4355 64.3295 41.7123 64.3808 41.9543 64.4835C42.1963 64.5862 42.3998 64.7292 42.5648 64.9125C42.7298 65.0958 42.8545 65.3177 42.9388 65.578C43.0232 65.8383 43.0653 66.1243 43.0653 66.436V70H42.6308C42.5355 70 42.4622 69.9853 42.4108 69.956C42.3595 69.923 42.3192 69.8607 42.2898 69.769L42.1798 69.241C42.0332 69.3767 41.8902 69.4977 41.7508 69.604C41.6115 69.7067 41.4648 69.7947 41.3108 69.868C41.1568 69.9377 40.9918 69.9908 40.8158 70.0275C40.6435 70.0678 40.451 70.088 40.2383 70.088C40.022 70.088 39.8185 70.0587 39.6278 70C39.4372 69.9377 39.2703 69.846 39.1273 69.725C38.988 69.604 38.8762 69.4518 38.7918 69.2685C38.7112 69.0815 38.6708 68.8615 38.6708 68.6085C38.6708 68.3885 38.7313 68.1777 38.8523 67.976C38.9733 67.7707 39.1695 67.5892 39.4408 67.4315C39.7122 67.2738 40.066 67.1455 40.5023 67.0465C40.9387 66.9438 41.474 66.8852 42.1083 66.8705V66.436C42.1083 66.0033 42.0148 65.677 41.8278 65.457C41.6408 65.2333 41.3677 65.1215 41.0083 65.1215C40.7663 65.1215 40.5628 65.1527 40.3978 65.215C40.2365 65.2737 40.0953 65.3415 39.9743 65.4185C39.857 65.4918 39.7543 65.5597 39.6663 65.622C39.582 65.6807 39.4977 65.71 39.4133 65.71C39.3473 65.71 39.2905 65.6935 39.2428 65.6605C39.1952 65.6238 39.1548 65.5798 39.1218 65.5285L38.9458 65.215Z" fill="#858991"/>
</svg>
